<?xml version="1.0" encoding="UTF-8" standalone="no"?>
<svg
   role="img"
   viewBox="0 0 100 66.666664"
   version="1.1"
   id="svg1"
   sodipodi:docname="languages.svg"
   inkscape:version="1.3.2 (091e20e, 2023-11-25, custom)"
   width="100"
   height="66.666664"
   xml:space="preserve"
   xmlns:inkscape="http://www.inkscape.org/namespaces/inkscape"
   xmlns:sodipodi="http://sodipodi.sourceforge.net/DTD/sodipodi-0.dtd"
   xmlns="http://www.w3.org/2000/svg"
   xmlns:svg="http://www.w3.org/2000/svg"
   xmlns:rdf="http://www.w3.org/1999/02/22-rdf-syntax-ns#"
   xmlns:cc="http://creativecommons.org/ns#"
   xmlns:dc="http://purl.org/dc/elements/1.1/"><defs
     id="defs1" /><sodipodi:namedview
     id="namedview1"
     pagecolor="#000000"
     bordercolor="#000000"
     borderopacity="0.25"
     inkscape:showpageshadow="2"
     inkscape:pageopacity="0.0"
     inkscape:pagecheckerboard="0"
     inkscape:deskcolor="#d1d1d1"
     inkscape:zoom="6.047236"
     inkscape:cx="52.089913"
     inkscape:cy="26.375686"
     inkscape:window-width="1920"
     inkscape:window-height="1017"
     inkscape:window-x="-8"
     inkscape:window-y="-8"
     inkscape:window-maximized="1"
     inkscape:current-layer="svg1" /><title
     id="title1">JavaScript</title><path
     d="M 0.43015188,12.225876 22.357473,6.0525547 28.530794,27.979878 6.6034736,34.153199 Z M 25.262243,23.255908 C 24.820699,22.300489 23.93263,21.64334 21.77959,21.403464 21.018411,21.277572 20.20932,21.268708 19.844549,20.824143 19.676523,20.54605 19.61744,20.385195 19.621177,20.191862 c -0.02912,-0.628795 0.619914,-1.002815 1.214396,-0.992693 0.387186,0.0093 0.793262,0.190811 1.123211,0.571225 0.77082,-0.883585 0.77082,-0.883585 1.31406,-1.479266 -0.354714,-0.314279 -0.5237,-0.44518 -0.736025,-0.561907 -0.756933,-0.482065 -1.616075,-0.595166 -2.855217,-0.215736 l -0.621224,0.26265 c -0.57518,0.324632 -1.070961,0.819192 -1.303815,1.358055 -0.709475,1.47274 0.169863,3.4438 1.6699,3.938518 1.509482,0.580803 3.390721,0.272043 3.87089,1.084459 0.520222,1.007224 -0.397458,1.635353 -1.433531,1.793928 -0.78726,0.04415 -1.301916,-0.211292 -1.947084,-0.769197 l -1.401616,1.43095 c 0.31533,0.384531 0.588361,0.513747 1.025305,0.804876 2.041412,1.156783 5.992588,-0.04436 6.019357,-2.684664 0.0033,-0.08969 0.03793,-0.705849 -0.356807,-1.526537 z M 15.191459,18.947223 13.1376,19.525457 c 0.498495,1.770632 0.985722,3.532602 1.484989,5.305973 0.316898,1.125604 0.66538,2.142723 0.571246,2.512372 -0.124269,0.71438 -0.923503,0.852618 -1.307291,0.841356 -0.412216,-0.07722 -0.665307,-0.272194 -0.978244,-0.567668 -0.08456,-0.07972 -0.150916,-0.150778 -0.166447,-0.146405 l -1.378017,1.497273 c 0.440709,0.497139 0.986693,0.877867 1.599863,1.045427 0.912345,0.24603 2.004557,0.101239 3.034214,-0.454887 0.657245,-0.407886 1.154344,-1.006352 1.291658,-1.754973 0.22674,-0.980864 -0.165166,-1.994633 -0.497949,-3.159151 -0.517423,-1.879683 -1.056924,-3.754139 -1.589374,-5.645369 z"
     id="path1"
     style="fill:#fefefe;fill-opacity:0.03;stroke-width:0.949156" /><metadata
     id="metadata1"><rdf:RDF><cc:Work
         rdf:about=""><dc:title>JavaScript</dc:title></cc:Work></rdf:RDF></metadata><path
     d="m 40.628196,1.7748441 0.928469,-0.118011 0.786671,-0.0023 0.666663,0.08397 0.539787,0.151162 0.441571,0.208045 0.355593,0.238952 0.266179,0.260306 0.198558,0.252253 0.127504,0.234646 0.08779,0.184194 0.03509,0.127618 1.83387,5.1013887 0.168589,0.619021 0.06469,0.570068 -0.04263,0.5115632 -0.117882,0.45231 -0.180133,0.399174 -0.229401,0.352159 -0.26911,0.301708 -0.286281,0.253941 -0.280913,0.208861 -0.262554,0.169899 -0.234646,0.127504 -0.193748,0.09123 -5.703236,2.050227 -0.641999,0.284726 -0.515557,0.336363 -0.402106,0.381881 -0.298955,0.398737 -0.205359,0.419032 -0.137739,0.427083 -0.06742,0.412599 -0.01624,0.404979 0.02467,0.368703 0.04302,0.329742 0.05451,0.271671 0.05301,0.207486 1.05087,2.923268 -2.130354,0.765829 -0.210919,0.04346 -0.291528,0.02929 -0.346912,-0.0047 -0.396182,-0.05173 -0.433213,-0.124724 -0.467544,-0.220282 -0.492335,-0.319249 -0.50832,-0.453742 -0.518186,-0.601222 -0.502827,-0.768561 -0.494338,-0.955001 -0.470174,-1.157868 -0.361654,-1.186091 -0.204309,-1.048477 -0.0695,-0.913546 0.06188,-0.788169 0.148164,-0.668162 0.23102,-0.557708 0.287904,-0.459491 0.318813,-0.373513 0.327178,-0.290219 0.309571,-0.219163 0.288531,-0.157662 0.225842,-0.09197 0.15285,-0.05495 0.06075,-0.01112 7.795381,-2.8023212 -0.285041,-0.792913 -5.579046,2.005582 -0.953961,-2.6236847 -0.146173,-0.346598 -0.069,-0.341979 -0.0014,-0.333924 0.06625,-0.32587 0.149539,-0.334239 0.217161,-0.326182 0.294336,-0.321564 0.358523,-0.323062 0.435699,-0.318442 0.512872,-0.313822 0.577061,-0.315322 0.657669,-0.301148 0.721856,-0.302647 0.795597,-0.307581 1.230423,-0.38838 z m -5.338516,4.05508 -0.106394,0.394241 0.06437,0.419154 0.217228,0.364206 0.336485,0.24582 0.390807,0.09684 0.422588,-0.05484 0.360775,-0.226775 0.239701,-0.323498 0.102959,-0.403795 -0.06439,-0.419152 -0.217227,-0.364206 -0.333051,-0.236268 -0.390808,-0.09684 -0.422588,0.05484 -0.360772,0.226782 z m 13.861602,-0.721887 0.288094,-0.03884 0.346912,0.0047 0.396177,0.05176 0.436637,0.134304 0.464112,0.210728 0.495769,0.328803 0.508319,0.45374 0.518186,0.601223 0.502828,0.7685597 0.490901,0.94545 0.470176,1.157868 0.365089,1.1956442 0.204307,1.048477 0.06607,0.903992 -0.06188,0.788169 -0.148164,0.668163 -0.227586,0.567261 -0.287904,0.459491 -0.318811,0.373513 -0.327179,0.290219 -0.313006,0.20961 -0.288531,0.157661 -0.222407,0.101533 -0.156285,0.0454 -7.852698,2.822925 0.281605,0.78336 5.579047,-2.005581 0.957396,2.633238 0.142738,0.337046 0.069,0.341978 0.0014,0.333924 -0.06281,0.335423 -0.152973,0.324685 -0.213726,0.335736 -0.294336,0.321564 -0.361957,0.313508 -0.435699,0.318443 -0.509439,0.323375 -0.580494,0.305768 -0.654236,0.310703 -0.721855,0.302647 -0.799032,0.298027 -1.226988,0.397931 -1.070268,0.233718 -0.928469,0.118011 -0.783236,0.01183 -0.666713,-0.08397 -0.543221,-0.160715 -0.44157,-0.208045 -0.355593,-0.23895 -0.266179,-0.260308 -0.198557,-0.252253 -0.124069,-0.225091 -0.08779,-0.184196 -0.03509,-0.127632 -1.83387,-5.101389 -0.172024,-0.628573 -0.06125,-0.560516 0.04263,-0.511564 0.117882,-0.45231 0.176698,-0.408727 0.232835,-0.342604 0.265676,-0.311261 0.286281,-0.253942 0.280913,-0.20886 0.265989,-0.160346 0.234646,-0.127504 0.193748,-0.09123 0.120762,-0.05419 5.579048,-2.005581 0.641996,-0.284727 0.515556,-0.336363 0.40554,-0.372327 0.295522,-0.408291 0.20536,-0.41903 0.137739,-0.427085 0.06742,-0.412599 0.01966,-0.395427 -0.02467,-0.3687032 -0.04302,-0.32974 -0.05794,-0.281226 -0.05301,-0.207483 -1.050869,-2.9232677 1.996609,-0.717752 0.137183,-0.03853 z m -1.287141,15.8351919 -0.106393,0.394241 0.06437,0.419154 0.217227,0.364205 0.333053,0.236268 0.39424,0.106394 0.419154,-0.06439 0.364206,-0.217228 0.236268,-0.333051 0.106393,-0.394242 -0.06439,-0.419154 -0.217227,-0.364205 -0.333053,-0.236267 -0.394241,-0.106394 -0.419152,0.06437 -0.364207,0.217229 z"
     id="path4"
     style="fill:#fefefe;fill-opacity:0.03;stroke-width:1.01517" /><path
     d="m 27.365327,41.90476 c -0.323799,-0.189588 -0.689359,-0.307575 -1.018405,-0.309558 l -11.413957,-0.05694 c -0.659064,-0.0034 -1.468297,0.458442 -1.799589,1.027075 l -5.7581041,9.857496 c -0.3318498,0.567659 -0.3358199,1.499446 -0.00964,2.071068 l 5.6578021,9.913325 c 0.163399,0.286299 0.445856,0.545958 0.769658,0.735547 0.323799,0.189588 0.68936,0.307576 1.018405,0.309559 l 11.413958,0.05693 c 0.657533,0.003 1.46774,-0.459416 1.799588,-1.027073 L 33.7812,54.625803 c 0.165647,-0.284318 0.249984,-0.659074 0.251434,-1.034291 0.0014,-0.375219 -0.07943,-0.749924 -0.242829,-1.036222 l -5.657802,-9.913325 c -0.16044,-0.287985 -0.441961,-0.548182 -0.766736,-0.737214 z m -2.835493,18.54331 c -3.817311,2.178641 -8.695697,0.844577 -10.874341,-2.972735 -2.178641,-3.817313 -0.845135,-8.696673 2.972178,-10.875315 a 7.9978123,7.9978123 0 0 1 7.969411,0.03857 l -2.006141,3.442938 a 3.9994667,3.9994667 0 0 0 -3.988598,-0.02157 3.9916181,3.9916181 0 0 0 -1.486925,5.440718 3.9916181,3.9916181 0 0 0 5.438633,1.485534 4.0028305,4.0028305 0 0 0 2.011147,-3.443214 l 3.98665,0.02269 a 8.0000547,8.0000547 0 0 1 -4.022014,6.882396 z m 3.19171,-10.490664 -0.769305,0.439064 0.439063,0.769304 -0.769304,0.439063 -0.439063,-0.769304 -0.769306,0.439063 -0.439064,-0.769306 0.769306,-0.439063 -0.439063,-0.769305 0.769305,-0.439063 0.439063,0.769305 0.769305,-0.439064 z m 2.884409,-1.646208 -0.769306,0.439063 0.439063,0.769305 -0.769306,0.439063 -0.439063,-0.769305 -0.769305,0.439064 -0.439063,-0.769306 0.769305,-0.439064 -0.439063,-0.769304 0.769306,-0.439065 0.439063,0.769305 0.769304,-0.439062 z"
     id="path1-6"
     style="fill:#fefefe;fill-opacity:0.03;stroke-width:1.12124" /><path
     d="m 54.844016,42.572552 c -1.015097,0.464369 -1.999984,1.018969 -2.882826,1.727568 0.208476,0.868473 0.443109,1.692743 0.738983,2.518194 -0.331636,0.327851 -0.69018,0.624844 -0.986652,0.988912 -0.304938,0.357739 -0.620238,0.705488 -0.879996,1.103507 -0.752167,-0.295076 -1.537632,-0.55561 -2.333285,-0.764266 -0.597341,0.998439 -1.130182,2.052455 -1.506662,3.185771 0.598901,0.625673 1.207506,1.201503 1.845884,1.735309 l 0.01362,-0.0028 1.317257,6.180536 c 0.01163,-0.0025 0.02235,-0.0048 0.03466,-0.0043 l 3.86636,-0.441839 c 0.202498,-0.02282 0.392053,0.103476 0.44817,0.299997 l 0.473133,1.647615 3.355447,-0.469157 -0.101346,-1.591559 c -0.01352,-0.206515 0.127083,-0.390986 0.329324,-0.43409 l 3.997587,-0.852005 c 0.202241,-0.04311 0.40584,0.06801 0.477699,0.26209 l 0.556398,1.494575 3.255049,-0.939738 -0.239759,-1.697255 a 0.41714777,0.41714777 0 0 1 0.286905,-0.45666 l 3.709646,-1.172835 c 0.01163,-0.0025 0.02175,-0.0077 0.03341,-0.01015 l -0.105085,-0.493061 0.002,-4.15e-4 -1.211984,-5.686599 0.01362,-0.0028 c 0.365152,-0.747688 0.686081,-1.52163 0.977922,-2.337147 -0.80586,-0.881324 -1.723014,-1.6262 -2.675873,-2.295365 -0.641452,0.514846 -1.25243,1.073004 -1.818899,1.649222 -0.399452,-0.25742 -0.828073,-0.446618 -1.252374,-0.648935 -0.420125,-0.211337 -0.868724,-0.336406 -1.304246,-0.500754 -0.06737,-0.874148 -0.189223,-1.722458 -0.352,-2.600671 -1.095046,-0.287052 -2.219387,-0.392009 -3.336681,-0.401904 -0.273354,0.806393 -0.497119,1.664222 -0.675102,2.494099 -0.416837,0.0187 -0.825531,0.0804 -1.23212,0.16197 l -0.01556,0.0032 c -0.404421,0.09127 -0.802752,0.201585 -1.191089,0.35449 -0.500772,-0.685113 -1.05486,-1.377158 -1.634348,-2.001886 l 7.65e-4,-0.0012 z m -1.069486,9.687243 c 1.261192,-0.268799 2.501988,0.535177 2.770785,1.796371 0.2688,1.261192 -0.53626,2.501202 -1.79755,2.770021 -1.260123,0.26857 -2.500995,-0.535288 -2.769814,-1.796579 -0.268777,-1.261097 0.535386,-2.501016 1.796579,-2.769813 z m 10.743137,-2.289684 c 1.260124,-0.268571 2.501015,0.535384 2.769815,1.796579 0.268797,1.261192 -0.535386,2.501014 -1.796579,2.769813 -1.261194,0.268798 -2.501968,-0.535082 -2.770787,-1.796372 -0.268777,-1.261095 0.535288,-2.500995 1.797551,-2.77002 z m -10.331621,3.14741 c -0.837165,0.178424 -1.371196,1.001749 -1.192751,1.839011 0.178446,0.837262 1.001583,1.370418 1.838749,1.191994 0.837264,-0.178446 1.371391,-1.001791 1.193133,-1.838178 -0.178219,-0.836195 -1.000777,-1.371405 -1.839013,-1.192752 z m 10.304622,-2.196224 c -0.837262,0.178445 -1.370418,1.001583 -1.191974,1.838846 0.178447,0.837263 1.000613,1.370626 1.837875,1.19218 0.837263,-0.178446 1.371391,-1.001791 1.193132,-1.838178 -0.178217,-0.836193 -1.000778,-1.371404 -1.839109,-1.192731 z m -5.057949,1.538468 c 0.405456,-0.08641 0.799871,0.1426 0.878433,0.511206 l 0.448071,2.102345 c 0.07853,0.368508 -0.187248,0.738234 -0.593677,0.824855 -0.406428,0.08662 -0.798899,-0.142807 -0.877438,-0.511316 l -0.448095,-2.102443 c -0.07854,-0.368507 0.18725,-0.738233 0.592706,-0.824647 z m -9.09392,7.604478 c 0.08007,0.366148 0.169338,0.765914 0.186331,0.845645 0.767042,3.598936 5.699965,4.354994 11.375359,3.166743 l 0.01361,-0.0028 c 5.666898,-1.228116 9.861691,-3.930579 9.094669,-7.529419 -0.0174,-0.08167 -0.09772,-0.482332 -0.17369,-0.848339 l -3.335304,1.054426 0.240649,1.706212 a 0.41853959,0.41853959 0 0 1 -0.29739,0.459914 l -4.004309,1.154317 a 0.41784368,0.41784368 0 0 1 -0.4777,-0.262089 l -0.565902,-1.520097 -3.292559,0.701743 0.10308,1.618738 a 0.41675011,0.41675011 0 0 1 -0.358798,0.439356 l -4.097721,0.572468 c -0.205351,0.02852 -0.402128,-0.09829 -0.458844,-0.29762 l -0.475027,-1.6565 -3.477227,0.398546 z"
     id="path1-66"
     style="fill:#fefefe;fill-opacity:0.03;stroke-width:0.994156" /><path
     d="m 81.590205,21.618347 c -0.266414,0.154393 -0.572399,0.238591 -0.884015,0.238462 l -3.272191,-0.02947 c -0.481358,0.0072 -0.345594,-0.167804 -0.25061,-0.279393 0.387883,-0.449851 0.46321,-0.545613 0.811664,-1.140027 0.03615,-0.06197 0.114263,-0.09171 0.189106,-0.09074 l 2.516396,0.02622 c 0.0897,-0.0021 0.185144,-0.05741 0.225747,-0.130827 l 4.857974,-8.443021 c 0.04545,-0.07845 0.04339,-0.181474 -0.0033,-0.261979 L 80.899097,3.0835602 c -0.04762,-0.082174 -0.136335,-0.133859 -0.230099,-0.1349543 l -9.73561,0.018765 c -0.08983,-4.9e-5 -0.179467,0.051894 -0.224916,0.1303441 l -4.854439,8.437646 c -0.04698,0.08155 -0.04562,0.187199 5.53e-4,0.266875 l 4.881917,8.423995 c 0.04666,0.0805 0.135722,0.130887 0.228393,0.128183 l 2.66887,-0.0034 c 1.399304,-0.08585 1.693742,-1.110174 1.321466,-1.752556 l -4.819868,-8.316923 c -0.0683,-0.117853 -0.02707,-0.264809 0.09078,-0.333108 L 71.15154,9.412138 c 0.115361,-0.06685 0.265507,-0.0297 0.333324,0.08733 l 4.819871,8.316933 c 0.839305,1.448263 0.531829,2.735141 -0.840909,3.530677 -0.421615,0.244336 -0.754425,0.437209 -1.946498,0.517157 l -2.553783,0.0088 c -0.631312,0.0012 -1.219737,-0.340841 -1.5367,-0.887778 L 64.544928,12.56126 c -0.316964,-0.546938 -0.320273,-1.227972 -0.0057,-1.773871 L 69.394285,2.339354 C 69.70506,1.8100149 70.318393,1.454573 70.928034,1.4505081 l 9.742909,-0.011899 c 0.631313,-0.00115 1.220916,0.3390503 1.537879,0.8859884 l 4.881917,8.4239965 c 0.316964,0.546936 0.318482,1.226792 0.0046,1.775663 l -4.856183,8.4442 c -0.153986,0.269955 -0.378339,0.493103 -0.648903,0.649901 z M 82.670547,9.897614 C 81.756691,8.3207081 80.44766,8.518329 78.032595,9.522118 c -2.440227,1.013936 -2.760896,0.992446 -3.068241,0.462108 -0.253955,-0.438213 -0.398006,-1.136359 1.280984,-2.1093759 1.49972,-0.869125 2.239567,-0.866605 3.052803,0.0125 0.07524,0.0839 0.202779,0.103112 0.300712,0.04636 l 0.946974,-0.548793 c 0.05892,-0.03415 0.09962,-0.09211 0.115407,-0.156688 0.01386,-0.0679 0.0023,-0.137677 -0.03866,-0.194896 -1.155994,-1.656103 -2.78334,-1.797313 -5.12131,-0.442401 -2.081517,1.20629 -2.814248,2.8039209 -1.960514,4.2770829 0.92588,1.597654 2.416727,1.323495 4.52889,0.363312 2.525893,-1.151169 2.913462,-0.909018 3.185695,-0.439265 0.472801,0.81584 0.0195,1.54308 -1.518399,2.434331 -1.931295,1.119233 -2.63712,0.880802 -3.336842,0.0025 -0.07624,-0.0933 -0.207984,-0.117837 -0.313387,-0.05675 l -0.943654,0.54687 c -0.117024,0.06782 -0.156938,0.215122 -0.08912,0.332146 0.71281,1.229986 2.231154,2.30801 5.425634,0.45673 2.314382,-1.340133 3.113011,-3.01919 2.190978,-4.610206 z"
     id="path1-2"
     style="fill:#fefefe;fill-opacity:0.03;stroke-width:0.959248" /><path
     d="m 90.690082,52.3894 c 0.411743,-0.471156 1.029274,-0.946499 1.029274,-0.946499 0,0 -1.882588,0.867612 -3.805088,1.538666 -2.352136,0.820198 -4.923763,1.528359 -6.264797,1.689844 -3.172484,0.384376 1.287058,-1.971259 1.287058,-1.971259 0,0 -1.873879,0.353629 -3.862536,2.032583 -2.344151,1.988586 7.122031,0.173655 11.616089,-2.343331 z m -4.781416,-0.511807 c -1.53274,-1.928452 -5.298409,-2.996743 -1.922878,-7.440352 4.213123,-5.541997 0.796637,-7.555232 0.796637,-7.555232 2.211595,4.028587 -2.405911,6.615584 -3.504713,9.757639 -0.74618,2.147225 1.578285,3.642418 4.630954,5.237945 z m 3.524372,-10.503097 c 0.0052,-0.0014 -8.363014,4.545784 -2.820335,8.361319 1.635023,1.123532 0.380473,2.841412 0.380473,2.841412 0,0 2.772353,-2.480328 0.768521,-4.167265 -1.871265,-1.57421 -3.17045,-2.261916 1.671341,-7.035466 z m 3.256186,13.884393 a 0.64303613,0.64303613 0 0 1 -0.06777,0.159058 c 6.102858,-3.411829 2.570524,-7.137195 -0.27282,-5.226468 a 0.9118463,0.9118463 0 0 0 -0.335367,0.429643 3.7159054,3.7159054 0 0 1 0.521777,-0.298168 c 1.496243,-0.740545 4.400178,1.122068 0.154183,4.935936 z m 3.230314,2.55675 c 0,0 0.896896,0.416039 -0.5318,1.291557 -2.72391,1.656659 -11.987621,4.339293 -14.871471,3.881475 -1.038061,-0.161799 0.565918,-1.180609 1.086721,-1.440415 0.539899,-0.270187 0.876876,-0.335501 0.876876,-0.335501 -1.224529,-0.462022 -6.329804,3.16562 -2.347985,2.795283 10.85843,-0.998847 18.807523,-5.671747 15.787658,-6.192404 z m -11.956582,0.836245 c -3.726011,2.160619 3.333297,2.807777 7.880842,-0.702944 a 9.7983947,9.7983947 0 0 1 -1.621082,-0.332317 c -2.168994,1.023289 -3.217427,1.32691 -5.349961,1.627617 -1.759662,0.247894 -0.909799,-0.592356 -0.909799,-0.592356 z m 10.457331,2.58895 c -3.820967,1.793193 -8.798518,2.98704 -11.858105,3.26058 -0.0014,-0.0052 0.730097,0.339379 3.874022,-0.260819 4.782891,-0.914893 11.887578,-3.251864 11.480964,-5.520347 0,0 -0.108991,0.926421 -3.496881,2.520586 z m -4.073982,-6.579559 c -2.8707,1.362512 -4.625028,1.799567 -6.894027,2.140986 -1.755705,0.263204 -0.851775,-0.852328 -0.851775,-0.852328 -4.049682,2.614456 3.269476,2.497633 8.991373,-0.913736 a 3.1835559,3.1835559 0 0 1 -1.245571,-0.374922 z"
     id="path1-3"
     style="fill:#fefefe;fill-opacity:0.03;stroke-width:0.0527079" /><path
     d="m 46.556914,33.933015 v 1.38684 c 0,1.277043 -2.897909,2.311393 -6.471905,2.311393 -3.573996,0 -6.471905,-1.03435 -6.471905,-2.311393 v -1.38684 c 0,-1.277042 2.897909,-2.311393 6.471905,-2.311393 3.573996,0 6.471905,1.034351 6.471905,2.311393 z m -1.583303,3.891813 c 0.600961,-0.213803 1.152805,-0.488285 1.583303,-0.826326 v 2.944142 c 0,1.277042 -2.897909,2.311393 -6.471905,2.311393 -3.573996,0 -6.471905,-1.034351 -6.471905,-2.311393 v -2.944142 c 0.430498,0.340933 0.982342,0.612523 1.583303,0.826326 1.297273,0.462278 3.025039,0.730976 4.888602,0.730976 1.863563,0 3.591329,-0.268698 4.888602,-0.730976 z m -11.360507,3.796463 c 0.430498,0.340933 0.982342,0.612523 1.583303,0.826326 1.297273,0.462278 3.025039,0.730976 4.888602,0.730976 1.863563,0 3.591329,-0.268698 4.888602,-0.730976 0.600961,-0.213803 1.152805,-0.48828 1.583303,-0.826326 v 2.481864 c 0,1.277042 -2.897909,2.311393 -6.471905,2.311393 -3.573996,0 -6.471905,-1.034351 -6.471905,-2.311393 z"
     id="path1-35"
     style="fill:#fefefe;fill-opacity:0.03;stroke-width:0.0288924" /><path
     d="m 63.350707,22.053114 c -0.571769,-0.164804 -1.167082,0.168167 -1.331886,0.739936 l -4.305086,15.067802 c -0.164805,0.571769 0.168167,1.167082 0.739936,1.331886 0.57177,0.164804 1.167082,-0.168167 1.331886,-0.739936 L 64.090643,23.385 c 0.164805,-0.571769 -0.168167,-1.167082 -0.739936,-1.331886 z m 2.710859,4.039382 c -0.420419,0.420418 -0.420419,1.103178 0,1.523597 l 3.00347,3.006833 -3.006834,3.006833 c -0.420418,0.420419 -0.420418,1.103179 0,1.523597 0.420419,0.420419 1.103179,0.420419 1.523597,0 l 3.766951,-3.76695 c 0.420418,-0.420418 0.420418,-1.103178 0,-1.523597 l -3.766951,-3.76695 c -0.420418,-0.420419 -1.103178,-0.420419 -1.523597,0 z m -10.31539,0 c -0.420419,-0.420419 -1.103179,-0.420419 -1.523597,0 l -3.766951,3.76695 c -0.420418,0.420419 -0.420418,1.103178 0,1.523597 l 3.766951,3.76695 c 0.420418,0.420419 1.103178,0.420419 1.523597,0 0.420418,-0.420418 0.420418,-1.103178 0,-1.523597 l -3.006834,-3.00347 3.006834,-3.006833 c 0.420418,-0.420419 0.420418,-1.103179 0,-1.523597 z"
     id="path1-0"
     style="fill:#fefefe;fill-opacity:0.03;stroke-width:0.0336335" /><path
     d="m 85.462093,20.819085 2.773307,12.277194 5.137321,0.974892 4.726183,-2.306719 -0.582116,-12.573061 z m 10.21729,2.7087 -5.76993,0.779089 0.338105,1.533407 5.512512,-0.744331 0.202099,4.716285 -2.958873,1.262574 0.0013,0.0094 -0.03453,0.0047 -3.214152,-0.438644 -0.509654,-2.354115 1.497419,-0.20219 0.271371,1.181216 1.740958,0.228417 1.624312,-0.682815 -0.0753,-1.978042 -5.239399,0.707454 -1.018991,-4.516483 7.568718,-1.021972 z"
     id="path1-4"
     style="fill:#fefefe;fill-opacity:0.03;stroke-width:0.0316772" /></svg>
