<?xml version="1.0" encoding="UTF-8" standalone="no"?>
<svg
   role="img"
   viewBox="0 0 101.25204 94.398522"
   version="1.1"
   id="svg1"
   sodipodi:docname="languages.svg"
   inkscape:version="1.3.2 (091e20e, 2023-11-25, custom)"
   width="101.25203"
   height="94.398521"
   xml:space="preserve"
   xmlns:inkscape="http://www.inkscape.org/namespaces/inkscape"
   xmlns:sodipodi="http://sodipodi.sourceforge.net/DTD/sodipodi-0.dtd"
   xmlns="http://www.w3.org/2000/svg"
   xmlns:svg="http://www.w3.org/2000/svg"
   xmlns:rdf="http://www.w3.org/1999/02/22-rdf-syntax-ns#"
   xmlns:cc="http://creativecommons.org/ns#"
   xmlns:dc="http://purl.org/dc/elements/1.1/"><defs
     id="defs1" /><sodipodi:namedview
     id="namedview1"
     pagecolor="#2e2e2e"
     bordercolor="#000000"
     borderopacity="0.25"
     inkscape:showpageshadow="2"
     inkscape:pageopacity="0.0"
     inkscape:pagecheckerboard="0"
     inkscape:deskcolor="#d1d1d1"
     inkscape:zoom="6.047236"
     inkscape:cx="48.617253"
     inkscape:cy="46.550193"
     inkscape:window-width="1920"
     inkscape:window-height="1017"
     inkscape:window-x="-8"
     inkscape:window-y="-8"
     inkscape:window-maximized="1"
     inkscape:current-layer="svg1" /><title
     id="title1">JavaScript</title><path
     d="M 3.7892255,9.1546344 20.971933,4.3170903 25.809477,21.4998 8.6267695,26.337344 Z M 23.248172,17.797998 c -0.346003,-0.748686 -1.041913,-1.263642 -2.72908,-1.451614 -0.596476,-0.09865 -1.230496,-0.105598 -1.516339,-0.453968 -0.131668,-0.21792 -0.177967,-0.343969 -0.175039,-0.495469 -0.02282,-0.492737 0.485778,-0.785827 0.951627,-0.777895 0.303407,0.0073 0.621616,0.149524 0.880171,0.447624 0.604031,-0.692396 0.604031,-0.692396 1.029725,-1.159184 -0.277961,-0.246275 -0.410382,-0.348852 -0.576764,-0.440322 -0.593149,-0.377756 -1.266391,-0.466384 -2.237408,-0.169055 l -0.486804,0.205818 c -0.450723,0.254388 -0.839228,0.641936 -1.021697,1.0642 -0.55596,1.15407 0.133108,2.698634 1.308568,3.086306 1.182862,0.455129 2.657041,0.213178 3.033311,0.849804 0.407657,0.789282 -0.311456,1.281497 -1.123345,1.40576 -0.616913,0.0346 -1.020209,-0.165573 -1.525776,-0.602759 l -1.098335,1.121322 c 0.247099,0.301327 0.461052,0.402583 0.80345,0.630718 1.599693,0.90648 4.695918,-0.03476 4.716894,-2.103759 0.0026,-0.07028 0.02972,-0.553118 -0.279601,-1.196226 z m -7.891677,-3.376376 -1.609448,0.453116 c 0.390632,1.387505 0.772433,2.768221 1.163669,4.157872 0.248328,0.882047 0.521406,1.679083 0.44764,1.968747 -0.09738,0.559803 -0.723676,0.66813 -1.02442,0.659305 -0.323021,-0.06051 -0.521349,-0.213297 -0.766573,-0.444837 -0.06626,-0.06247 -0.118261,-0.118153 -0.130431,-0.114726 l -1.079843,1.173294 c 0.345349,0.389569 0.773193,0.687915 1.253686,0.819219 0.714933,0.192794 1.570813,0.07933 2.377674,-0.356459 0.515031,-0.319628 0.904568,-0.788599 1.01217,-1.375234 0.177678,-0.768625 -0.129427,-1.563036 -0.390203,-2.475577 -0.405464,-1.472959 -0.828228,-2.941822 -1.245467,-4.423829 z"
     id="path1"
     style="fill:#fefefe;fill-opacity:0.03;stroke-width:0.743779" /><metadata
     id="metadata1"><rdf:RDF><cc:Work
         rdf:about=""><dc:title>JavaScript</dc:title></cc:Work></rdf:RDF></metadata><path
     d="m 37.906879,3.1965053 0.928469,-0.118011 0.786671,-0.0023 0.666663,0.08397 0.539787,0.151162 0.441571,0.208045 0.355593,0.238952 0.266179,0.2603059 0.198558,0.252253 0.127504,0.234646 0.08779,0.184194 0.03509,0.127618 1.83387,5.1013895 0.168589,0.6190213 0.06469,0.570067 -0.04263,0.511564 -0.117882,0.45231 -0.180133,0.399174 -0.229401,0.352159 -0.26911,0.301707 -0.286281,0.253941 -0.280913,0.208861 -0.262554,0.169899 -0.234646,0.127504 -0.193748,0.09123 -5.703236,2.050227 -0.641999,0.284726 -0.515557,0.336363 -0.402106,0.381881 -0.298955,0.398737 -0.205359,0.419032 -0.137739,0.427083 -0.06742,0.412599 -0.01624,0.404979 0.02467,0.368703 0.04302,0.329742 0.05451,0.271671 0.05301,0.207486 1.05087,2.923268 -2.130354,0.765829 -0.210919,0.04346 -0.291528,0.02929 -0.346912,-0.0047 -0.396182,-0.05173 -0.433213,-0.124724 -0.467544,-0.220282 -0.492335,-0.319249 -0.50832,-0.453742 -0.518186,-0.601222 -0.502827,-0.768561 -0.494338,-0.955001 -0.470174,-1.157868 -0.361654,-1.186091 -0.204309,-1.048477 -0.0695,-0.913546 0.06188,-0.788169 0.148164,-0.668162 0.23102,-0.557708 0.287904,-0.459491 0.318813,-0.373513 0.327178,-0.290219 0.309571,-0.219163 0.288531,-0.157661 0.225842,-0.09197 0.15285,-0.05495 0.06075,-0.01112 7.795381,-2.8023216 -0.285041,-0.792913 -5.579046,2.0055826 -0.953961,-2.6236856 -0.146173,-0.346598 -0.069,-0.3419792 -0.0014,-0.333924 0.06625,-0.32587 0.149539,-0.334239 0.217161,-0.326182 0.294336,-0.321564 0.358523,-0.323062 0.435699,-0.318442 0.512872,-0.313822 0.577061,-0.315322 0.657669,-0.301148 0.721856,-0.302647 0.795597,-0.3075809 1.230423,-0.38838 z m -5.338516,4.0550799 -0.106394,0.394241 0.06437,0.4191542 0.217228,0.364206 0.336485,0.24582 0.390807,0.09684 0.422588,-0.05484 0.360775,-0.226775 0.239701,-0.323498 0.102959,-0.4037952 -0.06439,-0.419152 -0.217227,-0.364206 -0.333051,-0.236268 -0.390808,-0.09684 -0.422588,0.05484 -0.360772,0.226782 z m 13.861602,-0.721887 0.288094,-0.03884 0.346912,0.0047 0.396177,0.05176 0.436637,0.134304 0.464112,0.210728 0.495769,0.328803 0.508319,0.45374 0.518186,0.6012232 0.502828,0.768559 0.490901,0.9454503 0.470176,1.1578693 0.365089,1.195644 0.204307,1.048476 0.06607,0.903992 -0.06188,0.788169 -0.148164,0.668163 -0.227586,0.567261 -0.287904,0.459491 -0.318811,0.373513 -0.327179,0.290219 -0.313006,0.20961 -0.288531,0.157661 -0.222407,0.101533 -0.156285,0.0454 -7.852698,2.822925 0.281605,0.78336 5.579047,-2.005581 0.957396,2.633238 0.142738,0.337046 0.069,0.341978 0.0014,0.333924 -0.06281,0.335423 -0.152973,0.324685 -0.213726,0.335736 -0.294336,0.321564 -0.361957,0.313508 -0.435699,0.318443 -0.509439,0.323375 -0.580494,0.305768 -0.654236,0.310703 -0.721855,0.302647 -0.799032,0.298027 -1.226988,0.397931 -1.070268,0.233718 -0.928469,0.118011 -0.783236,0.01183 -0.666713,-0.08397 -0.543221,-0.160715 -0.44157,-0.208045 -0.355593,-0.23895 -0.266179,-0.260308 -0.198557,-0.252253 -0.124069,-0.225091 -0.08779,-0.184196 -0.03509,-0.127632 -1.83387,-5.101389 -0.172024,-0.628573 -0.06125,-0.560516 0.04263,-0.511564 0.117882,-0.45231 0.176698,-0.408727 0.232835,-0.342604 0.265676,-0.311261 0.286281,-0.253942 0.280913,-0.20886 0.265989,-0.160346 0.234646,-0.127504 0.193748,-0.09123 0.120762,-0.05419 5.579048,-2.005581 0.641996,-0.284727 0.515556,-0.336363 0.40554,-0.372327 0.295522,-0.408291 0.20536,-0.419029 0.137739,-0.427085 0.06742,-0.412599 0.01966,-0.395427 -0.02467,-0.368703 -0.04302,-0.32974 -0.05794,-0.281226 -0.05301,-0.207483 -1.050869,-2.9232688 1.996609,-0.717752 0.137183,-0.03853 z m -1.287141,15.8351918 -0.106393,0.394241 0.06437,0.419154 0.217227,0.364205 0.333053,0.236268 0.39424,0.106394 0.419154,-0.06439 0.364206,-0.217228 0.236268,-0.333051 0.106393,-0.394242 -0.06439,-0.419154 -0.217227,-0.364205 -0.333053,-0.236267 -0.394241,-0.106394 -0.419152,0.06437 -0.364207,0.217229 z"
     id="path4"
     style="fill:#fefefe;fill-opacity:0.03;stroke-width:1.01517" /><path
     d="m 24.64401,43.326421 c -0.323799,-0.189588 -0.689359,-0.307575 -1.018405,-0.309558 l -11.413957,-0.05694 c -0.659064,-0.0034 -1.468297,0.458442 -1.799589,1.027075 l -5.7581034,9.857496 c -0.3318498,0.567659 -0.3358199,1.499446 -0.00964,2.071068 l 5.6578014,9.913325 c 0.163399,0.286299 0.445856,0.545958 0.769658,0.735547 0.323799,0.189588 0.68936,0.307576 1.018405,0.309559 l 11.413958,0.05693 c 0.657533,0.003 1.46774,-0.459416 1.799588,-1.027073 l 5.756157,-9.856386 c 0.165647,-0.284318 0.249984,-0.659074 0.251434,-1.034291 0.0014,-0.375219 -0.07943,-0.749924 -0.242829,-1.036222 l -5.657802,-9.913325 c -0.16044,-0.287985 -0.441961,-0.548182 -0.766736,-0.737214 z m -2.835493,18.54331 C 17.991206,64.048372 13.11282,62.714308 10.934176,58.896996 8.7555355,55.079683 10.089041,50.200323 13.906354,48.021681 a 7.9978123,7.9978123 0 0 1 7.969411,0.03857 l -2.006141,3.442938 a 3.9994667,3.9994667 0 0 0 -3.988598,-0.02157 3.9916181,3.9916181 0 0 0 -1.486925,5.440718 3.9916181,3.9916181 0 0 0 5.438633,1.485534 4.0028305,4.0028305 0 0 0 2.011147,-3.443214 l 3.98665,0.02269 a 8.0000547,8.0000547 0 0 1 -4.022014,6.882396 z m 3.19171,-10.490664 -0.769305,0.439064 0.439063,0.769304 -0.769304,0.439063 -0.439063,-0.769304 -0.769306,0.439063 -0.439064,-0.769306 0.769306,-0.439063 -0.439063,-0.769305 0.769305,-0.439063 0.439063,0.769305 0.769305,-0.439064 z m 2.884409,-1.646208 -0.769306,0.439063 0.439063,0.769305 -0.769306,0.439063 -0.439063,-0.769305 -0.769305,0.439064 -0.439063,-0.769306 0.769305,-0.439064 -0.439063,-0.769304 0.769306,-0.439065 0.439063,0.769305 0.769304,-0.439062 z"
     id="path1-6"
     style="fill:#fefefe;fill-opacity:0.03;stroke-width:1.12124" /><path
     d="m 52.122699,43.994213 c -1.015097,0.464369 -1.999984,1.018969 -2.882826,1.727568 0.208476,0.868473 0.443109,1.692743 0.738983,2.518194 -0.331636,0.327851 -0.69018,0.624844 -0.986652,0.988912 -0.304938,0.357739 -0.620238,0.705488 -0.879996,1.103507 -0.752167,-0.295076 -1.537632,-0.55561 -2.333285,-0.764266 -0.597341,0.998439 -1.130182,2.052455 -1.506662,3.185771 0.598901,0.625673 1.207506,1.201503 1.845884,1.735309 l 0.01362,-0.0028 1.317257,6.180536 c 0.01163,-0.0025 0.02235,-0.0048 0.03466,-0.0043 l 3.86636,-0.441839 c 0.202498,-0.02282 0.392053,0.103476 0.44817,0.299997 l 0.473133,1.647615 3.355447,-0.469157 -0.101346,-1.591559 c -0.01352,-0.206515 0.127083,-0.390986 0.329324,-0.43409 l 3.997587,-0.852005 c 0.202241,-0.04311 0.40584,0.06801 0.477699,0.26209 l 0.556398,1.494575 3.255049,-0.939738 -0.239759,-1.697255 a 0.41714777,0.41714777 0 0 1 0.286905,-0.45666 l 3.709646,-1.172835 c 0.01163,-0.0025 0.02175,-0.0077 0.03341,-0.01015 l -0.105085,-0.493061 0.002,-4.15e-4 -1.211984,-5.686599 0.01362,-0.0028 c 0.365152,-0.747688 0.686081,-1.52163 0.977922,-2.337147 -0.80586,-0.881324 -1.723014,-1.6262 -2.675873,-2.295365 -0.641452,0.514846 -1.25243,1.073004 -1.818899,1.649222 -0.399452,-0.25742 -0.828073,-0.446618 -1.252374,-0.648935 -0.420125,-0.211337 -0.868724,-0.336406 -1.304246,-0.500754 -0.06737,-0.874148 -0.189223,-1.722458 -0.352,-2.600671 -1.095046,-0.287052 -2.219387,-0.392009 -3.336681,-0.401904 -0.273354,0.806393 -0.497119,1.664222 -0.675102,2.494099 -0.416837,0.0187 -0.825531,0.0804 -1.23212,0.16197 l -0.01556,0.0032 c -0.404421,0.09127 -0.802752,0.201585 -1.191089,0.35449 -0.500772,-0.685113 -1.05486,-1.377158 -1.634348,-2.001886 l 7.65e-4,-0.0012 z m -1.069486,9.687243 c 1.261192,-0.268799 2.501988,0.535177 2.770785,1.796371 0.2688,1.261192 -0.53626,2.501202 -1.79755,2.770021 -1.260123,0.26857 -2.500995,-0.535288 -2.769814,-1.796579 -0.268777,-1.261097 0.535386,-2.501016 1.796579,-2.769813 z M 61.79635,51.391772 c 1.260124,-0.268571 2.501015,0.535384 2.769815,1.796579 0.268797,1.261192 -0.535386,2.501014 -1.796579,2.769813 -1.261194,0.268798 -2.501968,-0.535082 -2.770787,-1.796372 -0.268777,-1.261095 0.535288,-2.500995 1.797551,-2.77002 z m -10.331621,3.14741 c -0.837165,0.178424 -1.371196,1.001749 -1.192751,1.839011 0.178446,0.837262 1.001583,1.370418 1.838749,1.191994 0.837264,-0.178446 1.371391,-1.001791 1.193133,-1.838178 -0.178219,-0.836195 -1.000777,-1.371405 -1.839013,-1.192752 z m 10.304622,-2.196224 c -0.837262,0.178445 -1.370418,1.001583 -1.191974,1.838846 0.178447,0.837263 1.000613,1.370626 1.837875,1.19218 0.837263,-0.178446 1.371391,-1.001791 1.193132,-1.838178 -0.178217,-0.836193 -1.000778,-1.371404 -1.839109,-1.192731 z m -5.057949,1.538468 c 0.405456,-0.08641 0.799871,0.1426 0.878433,0.511206 l 0.448071,2.102345 c 0.07853,0.368508 -0.187248,0.738234 -0.593677,0.824855 -0.406428,0.08662 -0.798899,-0.142807 -0.877438,-0.511316 l -0.448095,-2.102443 c -0.07854,-0.368507 0.18725,-0.738233 0.592706,-0.824647 z m -9.09392,7.604478 c 0.08007,0.366148 0.169338,0.765914 0.186331,0.845645 0.767042,3.598936 5.699965,4.354994 11.375359,3.166743 l 0.01361,-0.0028 c 5.666898,-1.228116 9.861691,-3.930579 9.094669,-7.529419 -0.0174,-0.08167 -0.09772,-0.482332 -0.17369,-0.848339 l -3.335304,1.054426 0.240649,1.706212 a 0.41853959,0.41853959 0 0 1 -0.29739,0.459914 l -4.004309,1.154317 a 0.41784368,0.41784368 0 0 1 -0.4777,-0.262089 l -0.565902,-1.520097 -3.292559,0.701743 0.10308,1.618738 a 0.41675011,0.41675011 0 0 1 -0.358798,0.439356 l -4.097721,0.572468 c -0.205351,0.02852 -0.402128,-0.09829 -0.458844,-0.29762 l -0.475027,-1.6565 -3.477227,0.398546 z"
     id="path1-66"
     style="fill:#fefefe;fill-opacity:0.03;stroke-width:0.994156" /><path
     d="m 78.868888,23.040008 c -0.266414,0.154393 -0.572399,0.238591 -0.884015,0.238462 L 74.712682,23.249 c -0.481358,0.0072 -0.345594,-0.167804 -0.25061,-0.279393 0.387883,-0.449851 0.46321,-0.545613 0.811664,-1.140027 0.03615,-0.06197 0.114263,-0.09171 0.189106,-0.09074 l 2.516396,0.02622 c 0.0897,-0.0021 0.185144,-0.05741 0.225747,-0.130827 l 4.857974,-8.443021 c 0.04545,-0.07845 0.04339,-0.181474 -0.0033,-0.261979 L 78.17778,4.5052213 C 78.13016,4.4230473 78.041445,4.3713623 77.947681,4.370267 l -9.73561,0.018765 c -0.08983,-4.9e-5 -0.179467,0.051894 -0.224916,0.1303441 l -4.854439,8.4376459 c -0.04698,0.08155 -0.04562,0.187199 5.53e-4,0.266875 l 4.881917,8.423995 c 0.04666,0.0805 0.135722,0.130887 0.228393,0.128183 l 2.66887,-0.0034 c 1.399304,-0.08585 1.693742,-1.110174 1.321466,-1.752556 l -4.819868,-8.316922 c -0.0683,-0.117853 -0.02707,-0.264809 0.09078,-0.333108 L 68.430223,10.8338 c 0.115361,-0.06685 0.265507,-0.0297 0.333324,0.08733 l 4.819871,8.316932 c 0.839305,1.448263 0.531829,2.735141 -0.840909,3.530677 -0.421615,0.244336 -0.754425,0.437209 -1.946498,0.517157 l -2.553783,0.0088 c -0.631312,0.0012 -1.219737,-0.340841 -1.5367,-0.887778 l -4.881917,-8.423997 c -0.316964,-0.546938 -0.320273,-1.227971 -0.0057,-1.77387 l 4.855057,-8.4480358 c 0.310775,-0.5293391 0.924108,-0.884781 1.533749,-0.8888459 l 9.742909,-0.011899 c 0.631313,-0.00115 1.220916,0.3390503 1.537879,0.8859884 l 4.881917,8.4239973 c 0.316964,0.546936 0.318482,1.226791 0.0046,1.775662 l -4.856183,8.4442 c -0.153986,0.269955 -0.378339,0.493103 -0.648903,0.649901 z M 79.94923,11.319276 C 79.035374,9.7423694 77.726343,9.9399907 75.311278,10.94378 c -2.440227,1.013936 -2.760896,0.992446 -3.068241,0.462108 -0.253955,-0.438213 -0.398006,-1.136359 1.280984,-2.1093766 1.49972,-0.869125 2.239567,-0.866605 3.052803,0.0125 0.07524,0.0839 0.202779,0.103112 0.300712,0.04636 l 0.946974,-0.548793 c 0.05892,-0.03415 0.09962,-0.09211 0.115407,-0.156688 0.01386,-0.0679 0.0023,-0.137677 -0.03866,-0.194896 -1.155994,-1.6561032 -2.78334,-1.7973132 -5.12131,-0.442401 -2.081517,1.20629 -2.814248,2.8039216 -1.960514,4.2770836 0.92588,1.597653 2.416727,1.323494 4.52889,0.363312 2.525893,-1.151169 2.913462,-0.909018 3.185695,-0.439265 0.472801,0.815839 0.0195,1.543079 -1.518399,2.43433 -1.931295,1.119233 -2.63712,0.880802 -3.336842,0.0025 -0.07624,-0.0933 -0.207984,-0.117837 -0.313387,-0.05675 l -0.943654,0.54687 c -0.117024,0.06782 -0.156938,0.215122 -0.08912,0.332146 0.71281,1.229986 2.231154,2.30801 5.425634,0.45673 2.314382,-1.340133 3.113011,-3.01919 2.190978,-4.610205 z"
     id="path1-2"
     style="fill:#fefefe;fill-opacity:0.03;stroke-width:0.959248" /><path
     d="m 87.968765,53.811061 c 0.411743,-0.471156 1.029274,-0.946499 1.029274,-0.946499 0,0 -1.882588,0.867612 -3.805088,1.538666 -2.352136,0.820198 -4.923763,1.528359 -6.264797,1.689844 -3.172484,0.384376 1.287058,-1.971259 1.287058,-1.971259 0,0 -1.873879,0.353629 -3.862536,2.032583 -2.344151,1.988586 7.122031,0.173655 11.616089,-2.343331 z m -4.781416,-0.511807 c -1.53274,-1.928452 -5.298409,-2.996743 -1.922878,-7.440352 4.213123,-5.541997 0.796637,-7.555232 0.796637,-7.555232 2.211595,4.028587 -2.405911,6.615584 -3.504713,9.757639 -0.74618,2.147225 1.578285,3.642418 4.630954,5.237945 z m 3.524372,-10.503097 c 0.0052,-0.0014 -8.363014,4.545784 -2.820335,8.361319 1.635023,1.123532 0.380473,2.841412 0.380473,2.841412 0,0 2.772353,-2.480328 0.768521,-4.167265 -1.871265,-1.57421 -3.17045,-2.261916 1.671341,-7.035466 z m 3.256186,13.884393 a 0.64303613,0.64303613 0 0 1 -0.06777,0.159058 c 6.102859,-3.411829 2.570524,-7.137195 -0.27282,-5.226468 a 0.9118463,0.9118463 0 0 0 -0.335367,0.429643 3.7159054,3.7159054 0 0 1 0.521777,-0.298168 c 1.496243,-0.740545 4.400178,1.122068 0.154183,4.935936 z m 3.230314,2.55675 c 0,0 0.896896,0.416039 -0.5318,1.291557 -2.72391,1.656659 -11.987621,4.339293 -14.871471,3.881475 -1.038061,-0.161799 0.565918,-1.180609 1.086721,-1.440415 0.539899,-0.270187 0.876876,-0.335501 0.876876,-0.335501 -1.224529,-0.462022 -6.329804,3.16562 -2.347985,2.795283 10.85843,-0.998847 18.807524,-5.671747 15.787658,-6.192404 z m -11.956582,0.836245 c -3.726011,2.160619 3.333297,2.807777 7.880842,-0.702944 a 9.7983947,9.7983947 0 0 1 -1.621082,-0.332317 c -2.168994,1.023289 -3.217427,1.32691 -5.349961,1.627617 -1.759662,0.247894 -0.909799,-0.592356 -0.909799,-0.592356 z m 10.457331,2.58895 c -3.820967,1.793193 -8.798518,2.98704 -11.858105,3.26058 -0.0014,-0.0052 0.730097,0.339379 3.874022,-0.260819 4.782891,-0.914893 11.887578,-3.251864 11.480964,-5.520347 0,0 -0.108991,0.926421 -3.496881,2.520586 z m -4.073982,-6.579559 c -2.8707,1.362512 -4.625028,1.799567 -6.894027,2.140986 -1.755705,0.263204 -0.851775,-0.852328 -0.851775,-0.852328 -4.049682,2.614456 3.269476,2.497633 8.991373,-0.913736 a 3.1835559,3.1835559 0 0 1 -1.245571,-0.374922 z"
     id="path1-3"
     style="fill:#fefefe;fill-opacity:0.03;stroke-width:0.0527079" /><path
     d="m 43.835597,35.354676 v 1.38684 c 0,1.277043 -2.897909,2.311393 -6.471905,2.311393 -3.573996,0 -6.471905,-1.03435 -6.471905,-2.311393 v -1.38684 c 0,-1.277042 2.897909,-2.311393 6.471905,-2.311393 3.573996,0 6.471905,1.034351 6.471905,2.311393 z m -1.583303,3.891813 c 0.600961,-0.213803 1.152805,-0.488285 1.583303,-0.826326 v 2.944142 c 0,1.277042 -2.897909,2.311393 -6.471905,2.311393 -3.573996,0 -6.471905,-1.034351 -6.471905,-2.311393 v -2.944142 c 0.430498,0.340933 0.982342,0.612523 1.583303,0.826326 1.297273,0.462278 3.025039,0.730976 4.888602,0.730976 1.863563,0 3.591329,-0.268698 4.888602,-0.730976 z m -11.360507,3.796463 c 0.430498,0.340933 0.982342,0.612523 1.583303,0.826326 1.297273,0.462278 3.025039,0.730976 4.888602,0.730976 1.863563,0 3.591329,-0.268698 4.888602,-0.730976 0.600961,-0.213803 1.152805,-0.48828 1.583303,-0.826326 v 2.481864 c 0,1.277042 -2.897909,2.311393 -6.471905,2.311393 -3.573996,0 -6.471905,-1.034351 -6.471905,-2.311393 z"
     id="path1-35"
     style="fill:#fefefe;fill-opacity:0.03;stroke-width:0.0288924" /><path
     d="m 60.62939,23.474775 c -0.571769,-0.164804 -1.167082,0.168167 -1.331886,0.739936 l -4.305086,15.067802 c -0.164805,0.571769 0.168167,1.167082 0.739936,1.331886 0.57177,0.164804 1.167082,-0.168167 1.331886,-0.739936 l 4.305086,-15.067802 c 0.164805,-0.571769 -0.168167,-1.167082 -0.739936,-1.331886 z m 2.710859,4.039382 c -0.420419,0.420418 -0.420419,1.103178 0,1.523597 l 3.00347,3.006833 -3.006834,3.006833 c -0.420418,0.420419 -0.420418,1.103179 0,1.523597 0.420419,0.420419 1.103179,0.420419 1.523597,0 l 3.766951,-3.76695 c 0.420418,-0.420418 0.420418,-1.103178 0,-1.523597 l -3.766951,-3.76695 c -0.420418,-0.420419 -1.103178,-0.420419 -1.523597,0 z m -10.31539,0 c -0.420419,-0.420419 -1.103179,-0.420419 -1.523597,0 l -3.766951,3.76695 c -0.420418,0.420419 -0.420418,1.103178 0,1.523597 l 3.766951,3.76695 c 0.420418,0.420419 1.103178,0.420419 1.523597,0 0.420418,-0.420418 0.420418,-1.103178 0,-1.523597 l -3.006834,-3.00347 3.006834,-3.006833 c 0.420418,-0.420419 0.420418,-1.103179 0,-1.523597 z"
     id="path1-0"
     style="fill:#fefefe;fill-opacity:0.03;stroke-width:0.0336335" /><path
     d="m 82.740776,22.240746 2.773307,12.277194 5.137321,0.974892 4.726183,-2.306719 -0.582116,-12.573061 z m 10.21729,2.7087 -5.76993,0.779089 0.338105,1.533407 5.512512,-0.744331 0.202099,4.716285 -2.958873,1.262574 0.0013,0.0094 -0.03453,0.0047 -3.214152,-0.438644 -0.509654,-2.354115 1.497419,-0.20219 0.271371,1.181216 1.740958,0.228417 1.624312,-0.682815 -0.0753,-1.978042 -5.239399,0.707454 -1.018991,-4.516483 7.568718,-1.021972 z"
     id="path1-4"
     style="fill:#fefefe;fill-opacity:0.03;stroke-width:0.0316772" /><path
     d="m 40.66825,71.52404 a 2.236,2.236 0 0 1 -2.235,2.236 2.236,2.236 0 0 1 -2.236005,-2.236 2.236,2.236 0 0 1 2.235005,-2.236 2.236,2.236 0 0 1 2.236,2.236 z m 2.648,-10.69 c -1.346,0 -3.107,0.96 -4.888,2.622 -1.780005,-1.653 -3.542005,-2.602 -4.887005,-2.602 -0.41,0 -0.783,0.093 -1.106,0.278 -1.375,0.793 -1.683,3.264 -0.973,6.365 -3.044,0.94 -5.024,2.443 -5.024,4.027 0,1.59 1.99,3.097 5.043,4.03 -0.704,3.113 -0.39,5.588 0.988,6.38 0.32,0.187 0.69,0.275 1.102,0.275 1.345,0 3.107,-0.96 4.888005,-2.624 1.78,1.654 3.542,2.603 4.887,2.603 0.41,0 0.783,-0.09 1.106,-0.275 1.374,-0.792 1.683,-3.263 0.973,-6.365 3.033,-0.932 5.013,-2.438 5.013,-4.024 0,-1.59 -1.99,-3.097 -5.043,-4.032 0.704,-3.11 0.39,-5.587 -0.988,-6.38 -0.318,-0.184 -0.688,-0.277 -1.092,-0.278 z m -0.005,1.09 v 0.006 c 0.225,0 0.406,0.044 0.558,0.127 0.666,0.382 0.955,1.835 0.73,3.704 -0.054,0.46 -0.142,0.945 -0.25,1.44 -0.96,-0.236 -2.006,-0.417 -3.107,-0.534 -0.66,-0.905 -1.345,-1.727 -2.035,-2.447 1.592,-1.48 3.087,-2.292 4.105,-2.295 z m -9.770005,0.02 c 1.012,0 2.514,0.808 4.110003,2.28 -0.686003,0.72 -1.370003,1.537 -2.020003,2.442 -1.107,0.117 -2.154,0.298 -3.113,0.538 -0.112,-0.49 -0.195,-0.964 -0.254,-1.42 -0.23,-1.868 0.054,-3.32 0.714,-3.707 0.19,-0.09 0.4,-0.127 0.563,-0.132 z m 4.882005,3.05 c 0.455,0.468 0.91,0.992 1.36,1.564 -0.44,-0.02 -0.89,-0.034 -1.345,-0.034 -0.46,0 -0.915002,0.01 -1.360005,0.034 0.440003,-0.572 0.895005,-1.096 1.345005,-1.565 z m 0.015,2.626 c 0.74,0 1.477,0.034 2.202,0.093 0.406,0.582 0.802,1.203 1.183,1.86 0.372,0.64 0.71,1.29 1.018,1.946 -0.308,0.655 -0.646,1.31 -1.013,1.95 -0.38,0.66 -0.773,1.288 -1.18,1.87 -0.728,0.063 -1.466,0.098 -2.21,0.098 -0.740002,0 -1.477005,-0.035 -2.202005,-0.093 -0.406,-0.582 -0.802,-1.204 -1.183,-1.86 -0.372,-0.64 -0.71,-1.29 -1.018,-1.946 0.303,-0.657 0.646,-1.313 1.013,-1.954 0.38,-0.66 0.773,-1.286 1.18,-1.868 0.728,-0.064 1.466003,-0.098 2.210005,-0.098 z m -3.635005,0.254 c -0.24,0.377 -0.48,0.763 -0.704,1.16 -0.225,0.39 -0.435,0.782 -0.635,1.174 -0.265,-0.656 -0.49,-1.31 -0.676,-1.947 0.64,-0.15 1.315,-0.283 2.015,-0.386 z m 7.260005,0 c 0.695,0.103 1.365,0.23 2.006,0.387 -0.18,0.632 -0.405,1.282 -0.66,1.933 -0.2,-0.39 -0.41,-0.783 -0.64,-1.174 -0.225,-0.392 -0.465,-0.774 -0.705,-1.146 z m 3.063,0.675 c 0.484,0.15 0.944,0.317 1.375,0.498 1.732,0.74 2.852,1.708 2.852,2.476 -0.005,0.768 -1.125,1.74 -2.857,2.475 -0.42,0.18 -0.88,0.342 -1.355,0.493 -0.28,-0.958 -0.646,-1.956 -1.1,-2.98 0.45,-1.017 0.81,-2.01 1.085,-2.964 z m -13.395005,0.004 c 0.278,0.96 0.645,1.957 1.1,2.98 -0.45,1.017 -0.812,2.01 -1.086,2.964 -0.484,-0.15 -0.944,-0.318 -1.37,-0.5 -1.732,-0.737 -2.852,-1.706 -2.852,-2.474 0,-0.768 1.12,-1.742 2.852,-2.476 0.42,-0.18 0.88,-0.342 1.356,-0.494 z m 11.678005,4.28 c 0.265,0.657 0.49,1.312 0.676,1.948 -0.64,0.157 -1.316,0.29 -2.016,0.39 0.24,-0.375 0.48,-0.762 0.705,-1.158 0.225,-0.39 0.435,-0.788 0.636,-1.18 z m -9.945005,0.02 c 0.2,0.392 0.41,0.783 0.64,1.175 0.23,0.39 0.465,0.772 0.705,1.143 -0.695,-0.102 -1.365,-0.23 -2.006,-0.386 0.18,-0.63 0.406,-1.282 0.66,-1.933 z m 10.894005,2.987 c 0.112,0.493 0.2,0.968 0.254,1.423 0.23,1.868 -0.054,3.32 -0.714,3.708 -0.147,0.09 -0.338,0.128 -0.563,0.128 -1.012,0 -2.514,-0.807 -4.11,-2.28 0.686,-0.72 1.37,-1.536 2.02,-2.44 1.107,-0.118 2.154,-0.3 3.113,-0.54 z m -11.830005,0.01 c 0.96,0.234 2.006,0.415 3.107,0.532 0.66,0.905 1.345,1.727 2.035003,2.446 -1.595003,1.483 -3.092003,2.295 -4.110003,2.295 -0.22,-0.005 -0.406,-0.05 -0.553,-0.132 -0.666,-0.38 -0.955,-1.834 -0.73,-3.703 0.054,-0.46 0.142,-0.944 0.25,-1.438 z m 4.56,0.64 c 0.440003,0.02 0.890005,0.034 1.345005,0.034 0.46,0 0.915,-0.01 1.36,-0.034 -0.44,0.572 -0.895,1.095 -1.345,1.565 -0.455,-0.47 -0.910002,-0.993 -1.360005,-1.565 z"
     id="path1-09"
     style="fill:#fefefe;fill-opacity:0.03" /><path
     d="m 23.867352,92.054265 c -0.914,-0.72 -1.89,-1.41 -2.556,-2.38 -1.402,-1.712 -2.481999,-3.694 -3.219999,-5.777 -0.446,-1.355 -0.6,-2.808 -1.174,-4.11 -0.602,-0.944 0.103,-1.978 1.138,-2.28 0.46,-0.087 1.272,-0.522 0.293,-0.211 -0.878,0.644 -0.963,-0.585 -0.063,-0.662 0.615,-0.082 0.84,-0.585 0.63,-1.037 -0.66,-0.43 1.599999,-0.903 0.463,-1.544 -1.183,-1.279 1.656999,-1.524 0.956999,-0.074 -0.167,1.115 1.984,-0.205 1.485,1.083 0.507,0.619 1.9,0.14 1.865,1.009 0.74,0.05 0.993,0.672 1.687,0.72 0.72,0.325 2.022,0.58 2.266,1.39 -0.713,0.566 -2.364,-1.165 -2.443,0.398 0.215,2.31 0.16,4.689 1.004,6.888 0.4,1.332 1.37,2.38 2.244,3.418 0.837,1.016 1.971,1.73 3.127,2.333 1.014,0.478 2.107,0.795 3.213,0.994 0.448,-0.343 1.24,-1.617 1.938,-1.08 0.033,0.604 -1.388,1.263 -0.067,1.196 0.776,-0.234 1.314,0.6 1.953,-0.152 0.588,0.697 2.446,-0.446 2.027,0.98 -0.566,0.364 -1.392,0.144 -1.959,0.646 -0.935,-0.467 -1.68,0.418 -2.715,0.306 a 19.86,19.86 0 0 1 -3.484,0.29 c -1.912,-0.15 -3.865,-0.214 -5.684,-0.88 -1.024,-0.297 -2.023,-0.881 -2.924,-1.464 z m 1.615,0.7 c 1,0.432 1.978,0.888 3.074,1.026 1.74,0.24 3.537,0.614 5.283,0.274 -0.79,-0.357 -1.608,0.14 -2.395,-0.255 -0.944,0.203 -1.957,-0.052 -2.917,-0.177 -1.092,-0.486 -2.27,-0.82 -3.291,-1.452 -1.277,-0.466 0.66,0.598 1.005,0.685 0.798,0.453 -0.877,-0.233 -1.114,-0.421 -0.668,-0.375 -0.754,-0.297 -0.066,0.084 0.139,0.08 0.276,0.166 0.42,0.235 z m -1.904,-1.346 c 0.97,0.359 -0.004,-0.682 -0.45,-0.622 -0.196,-0.341 -0.751,-0.557 -0.36,-0.74 -0.704,0.244 -0.737,-0.93 -1.07,-0.763 -0.744,-0.235 -0.29,-1.07 -1.176,-1.58 -0.081,-0.54 -0.881999,-1.008 -1.137999,-1.822 -0.113,-0.416 -0.905,-1.613 -0.418,-0.5 0.414,1.072 1.142999,1.99 1.749999,2.907 0.47,0.873 1.027,1.786 1.885,2.33 0.29,0.278 0.568,0.703 0.977,0.79 z m -2.793,-3.067 c 0.033,-0.146 0.177,0.317 0,0 z m 3.954,3.497 c 0.215,-0.096 -0.31,-0.12 0,0 z m 0.526,0.192 c -0.054,-0.265 -0.24,0.148 0,0 z m 0.66,0.275 c 0.312,-0.3 -0.484,-0.188 0,0 z m 1.127,0.63 c 0.191,-0.282 -0.61,-0.107 0,0 z m -2.167,-1.513 c 0.487,-0.315 -0.63,-0.004 0,0 z m 0.494,0.246 c -0.014,-0.166 -0.176,0.075 0,0 z m 2.47,1.542 c 0.397,0.25 2.32,0.55 1.115,0.103 -0.2,0.042 -2.23,-0.574 -1.116,-0.103 z m -3.921,-3.054 c -0.04,-0.167 -0.616,-0.185 0,0 z m 1.15,0.67 c 0.3,-0.21 -0.621,-0.16 0,0 z m 0.966,0.593 c 0.43,-0.162 -0.696,-0.163 0,0 z m -2.584,-1.773 c 0.466,0.358 1.88,0.046 0.714,-0.213 -0.53,-0.283 -1.727,-0.476 -0.912,0.17 z m 3.24,1.978 c 0.193,-0.33 -0.815,-0.19 0,0 z m -0.984,-0.783 c 1.14,0.323 -0.958,-0.72 -0.281,-0.118 l 0.15,0.068 0.13,0.05 z m 1.973,1.14 c 1.08,0.01 -0.975,-0.147 0,0 z m -4.644,-2.96 c -0.042,-0.2 -0.266,0.018 0,0 z m 6.47,3.985 c 0.028,-0.363 -0.353,0.27 0,0 z m -4.63,-2.856 c -0.064,-0.191 -0.336,-0.008 0,0 z m -1.738,-1.254 c 0.62,-0.037 -0.848,-0.273 0,0 z m -2.06,-1.332 c -0.077,-0.297 -0.674,-0.534 0,0 z m 5.407,3.435 c -0.114,-0.13 -0.054,0.028 0,0 z m 3.366,2.065 c -0.01,-0.197 -0.183,0.075 0,0 z m -3.664,-2.373 c 0.06,-0.255 -0.528,-0.077 0,0 z m -2.506,-1.592 c 0.46,-0.05 -0.74,-0.311 0,0 z m 4.241,2.637 c 0.718,-0.285 -0.7,-0.14 0,0 z m -2.206,-1.497 c 0.827,0.106 -0.985,-0.563 -0.181,-0.06 z m 2.876,1.768 c 0.773,-0.462 0.518,1.082 1.311,0.13 0.782,-0.57 -0.675,0.707 0.29,0.103 0.696,-0.467 1.726,0.22 2.376,0.445 0.468,-0.023 0.923,0.405 1.403,0.145 0.923,-0.25 -1.806,-0.37 -1.09,-0.81 -0.845,0.245 -1.47,-0.294 -1.885,-0.835 -0.948,-0.22 -2.044,-0.703 -2.517,-1.542 -0.192,-0.315 0.28,0.044 -0.166,-0.47 -0.57,-0.508 -0.856,-1.085 -1.24,-1.702 -0.457,-0.244 -0.51,-0.963 -0.557,-0.024 0.004,-0.593 -0.553,-0.992 -0.688,-0.826 -0.002,-0.571 0.595,-0.285 0.176,-0.707 -0.09,-0.592 -0.386,-1.21 -0.475,-1.877 -0.138,-0.322 -0.02,-1.011 -0.473,-0.282 -0.165,0.77 -0.055,-0.947 0.202,-0.38 0.337,-0.58 -0.12,-0.51 -0.14,-0.43 0.22,-0.488 0.14,-1.18 -0.057,-0.916 0.117,-0.517 0.185,-1.902 -0.175,-1.656 0.218,-0.54 0.414,-2.473 -0.534,-1.736 -0.384,0.005 -1.048,0.14 -1.363,0.296 0.986,0.543 -0.1,0.196 -0.5,0.11 -0.052,0.502 -0.45,0.285 -0.946,0.29 0.793,0.098 -0.386,0.81 -0.841,0.534 -0.59,0.282 0.51,0.987 0.012,1.205 0.06,0.328 -0.905,-0.12 -0.83,0.64 -0.572999,-0.241 -0.078,0.9 0.209,0.514 0.975,0.264 0.686,0.866 0.71,1.437 -0.158,0.333 -0.784,-0.783 -0.14,-0.731 -0.507,-0.827 -0.561,-0.3 -0.983999,0.085 -0.1,0.028 1.078999,0.547 0.339999,0.803 0.65,0.1 0.668,0.67 0.8,1.03 0.39,0.407 0.31,-0.45 0.779,0.04 -0.296,-0.436 -1.567,-1.228 -0.544,-0.974 -0.005,-0.44 -0.185,-0.793 0.129,-0.784 0.31,-0.562 -0.325,1.387 0.375,0.672 0.193,-0.085 0.24,-0.563 0.59,0.045 0.505,0.498 0.182,0.858 -0.531,0.403 0.127,0.433 0.954,0.587 0.799,1.265 0.165,0.595 0.395,0.376 0.596,0.342 0.158,0.578 0.247,0.153 0.255,-0.123 0.72,0.155 0.552,0.58 0.778,0.88 0.497,0.224 -0.712,-1.522 0.142,-0.526 0.898,0.81 0.337,1.15 -0.47,1.02 0.51,-0.041 0.675,0.69 1.313,0.664 0.582,0.277 0.975,1.34 -0.027,0.897 -0.348,-0.313 -1.58,-0.7 -0.573,-0.104 0.929,0.43 1.665,0.688 2.561,1.227 0.64,0.458 0.918,0.982 1.16,1.086 -0.538,0.257 -1.623,-0.206 -0.817,-0.348 -0.503,-0.091 -1.068,-0.345 -0.587,0.28 0.41,0.343 1.45,0.306 1.637,0.345 -0.159,0.348 -0.43,0.376 0.006,0.403 -0.486,0.26 0.156,0.3 0.201,0.448 z m -0.994,-2.808 c -0.296,-0.31 -0.373,-0.89 -0.053,-0.385 0.164,0.066 0.525,0.947 0.053,0.385 z m 3.238,2.057 c 0.185,-0.011 0.006,0.14 0,0 z m -3.706,-2.816 c -0.01,-0.468 0.107,0.36 0,0 z m -0.322,-0.433 c -0.372,-0.72 0.47,0.204 0,0 z m -3.9,-2.692 c 0.219,-0.06 0.108,0.374 0,0 z m 3.104,1.682 c 0.134,-0.504 0.158,0.424 0,0 z m -2.192,-1.525 c -0.155,-0.278 0.323,0.26 0,0 z m 1.882,0.604 c -0.352,-0.79 0.25,-0.432 0.078,0.13 z m -3.246,-2.165 c -0.158,-0.26 -0.418,-1.02 -0.334,-1.252 0.076,0.378 0.804,1.627 0.357,0.518 -0.494,-0.93 0.59,0.302 0.702,0.534 0.05,0.23 -0.305,-0.063 -0.064,0.478 -0.44,-0.617 -0.26,0.34 -0.661,-0.278 z m -1.003,-0.691 c 0.04,-0.603 0.23,0.413 0,0 z m 0.45,0.155 c 0.216,-0.455 0.366,0.634 0,0 z m -1.084,-0.84 c -0.374,-0.37 -0.644,-0.713 0.017,-0.23 0.255,0.01 -0.566,-0.778 0.06,-0.25 0.66,0.12 0.327,1.082 -0.077,0.48 z m 0.57,-0.015 c 0.217,-0.215 0.115,0.212 0,0 z m 0.35,0.113 c -0.328,-0.617 0.4,0.258 0,0 z m -0.697,-0.667 c -1.086,-0.966 1.365,0.506 0.177,0.18 z m 3.11,1.808 c -0.47,-0.282 -0.123,-1.984 0.037,-0.82 0.457,-0.148 -0.025,0.6 0.315,0.594 -0.053,0.473 -0.206,0.643 -0.35,0.226 z m 1.15,0.68 c 0.048,-0.513 0.099,0.35 0,0 z m -0.2,-0.198 c 0.054,-0.22 0.007,0.258 0,0 z m -3.846,-2.607 c -0.697,-0.963 2.027,0.973 0.447,0.244 -0.165,-0.043 -0.364,-0.06 -0.447,-0.244 z m 2.216,1.175 c -0.066,-0.81 0.147,0.134 0,0 z m 1.682,1.079 c 0.13,-0.462 0.01,0.305 0,0 z m -3.792,-2.622 c 0.415,-0.088 1.718,0.729 0.52,0.234 -0.132,-0.148 -0.416,-0.08 -0.52,-0.234 z m 3.56,1.775 c 0.044,-0.83 0.248,-0.495 0.002,0.118 z m -3.251,-2.063 c 0.169,-0.248 -0.45,-1.12 0.089,-0.313 0.232,0.185 0.672,0.31 0.283,0.387 0.61,0.539 -0.15,0.146 -0.372,-0.074 z m 3.075,1.804 c 0.117,-0.944 0.103,0.553 0,0 z m -3.428,-2.676 c 0.129,-0.055 0.068,0.172 0,0 z m 0.802,0.478 c 0.206,-0.434 0.38,0.483 0,0 z m 2.263,1.259 c -0.002,-0.167 0.043,0.242 0,0 z m -0.131,-0.29 c -0.314,-0.776 0.292,0.41 0,0 z m -0.193,-0.51 c -0.053,-0.32 0.18,0.404 0,0 z m 0.314,-0.51 c -0.216,-0.38 0.272,-1.673 0.326,-0.87 -0.227,0.625 -0.065,0.975 0.093,0.136 0.293,-0.66 -0.063,1.303 -0.42,0.735 z m 0.322,-1.923 c 0.094,-0.115 0.02,0.139 0,0 z m -0.539,10.613 c -0.128,-0.111 0.016,0.07 0,0 z m 1.11,0.56 c 0.615,0.16 0.612,-0.095 0.055,-0.17 -0.3,-0.28 -1.246,-0.575 -0.4,-0.035 0.057,0.142 0.235,0.139 0.344,0.206 z m -2.191,-1.454 c 0.34,0.253 1.28,0.719 0.484,0.096 0.269,-0.312 -0.514,-0.478 -0.254,-0.686 -0.66,-0.404 -0.52,-0.368 -0.058,-0.356 -0.794,-0.354 0.114,-0.328 0.07,-0.51 -0.305,-0.06 -1.52,-0.54 -0.804,0.04 -0.726,-0.37 -0.173,0.138 -0.392,0.084 -0.743,-0.202 0.66,0.565 -0.118,0.375 0.425,0.337 1.146,0.864 0.18,0.357 -0.128,0.183 0.69,0.46 0.892,0.6 z m 1.16,0.667 c 1.41,0.454 -0.691,-0.556 0,0 z m 5.94,3.598 c 0.02,-0.28 -0.193,0.24 0,0 z m 0.611,0.257 c 0.325,-0.315 0.013,0.503 0.54,-0.077 0.005,-0.415 -0.017,-0.66 -0.606,-0.156 -0.162,0.09 -0.234,0.473 0.066,0.233 z m -9.692,-6.087 c -0.1,-0.393 -0.7,-0.39 0,0 z m 0.652,0.428 c -0.242,-0.402 -0.864,-0.364 0,0 z m 3.71,2.237 c 0.362,0.32 1.662,0.236 0.44,0.04 -0.182,-0.27 -1.151,-0.204 -0.44,-0.04 z m 5.097,3.149 c 0.558,-0.468 -0.54,0.208 0,0 z m 1.16,0.796 c 0.003,-0.15 -0.24,0.066 0,0 z m 10e-4,-0.21 c 0.617,-0.654 -0.598,0.039 0,0 z m -12.222999,-7.742 c -0.526,-0.75 -0.327,-1.088 -0.835,-1.7 -0.096,-0.47 -0.87,-1.533 -0.4,-0.406 0.43,0.659 0.558,1.679 1.235,2.106 z m 12.029999,7.534 c 1.135,-0.734 -0.466,-0.32 0,0 z m 0.866,0.34 c 0.57,-0.488 -0.36,-0.102 0,0 z m -11.486,-7.362 c 0.163,-0.242 -0.42,-0.031 0,0 z m 11.305,7.129 c 0.551,-0.355 -0.126,-0.3 -0.1,0.032 z m -7.47,-4.71 c -0.02,-0.24 -0.291,0.02 0,0 z m 0.46,0.267 c -0.145,-0.297 -0.224,0.047 0,0 z m 7.894,4.684 c 0.705,-0.51 -0.428,-0.098 -0.148,0.096 z m -0.27,-0.13 c 0.574,-0.482 -0.607,0.213 0,0 z m 1.38,0.918 c 0.386,-0.258 -0.469,-0.083 0,0 z m -12.944,-8.333 c 0.517,0.116 2.066,1.274 1.152,0.08 -0.468,-0.138 -0.187,-1.283 -0.665,-1.08 0.32,0.535 0.264,0.763 -0.41,0.426 -0.845,-0.413 -0.474,0.204 -0.31,0.374 -0.224,0.052 0.299,0.196 0.233,0.2 z m -2.355999,-1.86 c 0.092,-0.383 -0.853,-2.107 -0.446,-0.864 0.146,0.26 0.13,0.754 0.446,0.864 z m 4.323999,2.666 c -0.266,-0.223 -0.013,-0.032 0,0 z m 0.656,0.152 c 0,-0.405 -0.725,-0.164 0,0 z m 5.681,3.583 c -0.108,-0.278 -0.428,-0.006 0,0 z m 0.273,0.199 c -0.04,-0.155 -0.157,0.03 0,0 z m 2.252,1.42 c 0.216,-0.16 -0.27,-0.02 0,0 z m -12.01,-7.72 c 0.62,-0.24 -0.663999,-0.17 0,0 z m 8.984,5.662 c -0.007,-0.401 -0.395,0.1 0,0 z m -9.23,-6.231 c 0.399,-0.135 -0.366999,-0.09 0,0 z m 1.156,0.56 c -0.007,-0.133 -0.122,0.05 0,0 z m 14.09,8.64 c 0.512,-0.104 1.678,0.26 1.866,-0.136 -0.62,-0.015 -2.15,-0.438 -2.222,0.1 l 0.136,0.023 z m -13.723,-8.548 c 0.009,-0.407 -0.317,-0.015 0,0 z m -3.036999,-2.108 c -0.138,-0.775 -0.525,-0.118 0,0 z m 0.724,0.182 c 0.009,-0.25 -0.663,-0.224 0,0 z m 0.414,0.203 c -0.12,-0.097 -0.094,0.122 0,0 z m 2.604999,1.67 c 0.122,-0.112 -0.29,-0.083 0,0 z m -2.879999,-2.128 c -0.07,-0.585 -0.84,-0.088 0,0 z m -1.486,-0.964 c -0.02,-0.27 -0.144,0.102 0,0 z m 0.22,-0.167 c -0.035,-0.32 -0.19,0.04 0,0 z m 1.22,0.729 c 0.518,-0.203 -0.94,-0.42 -0.104,-0.04 z m 16.333999,10.089 c 0.33,-0.303 -0.42,-0.094 0,0 z m 1.974,1.023 c 0.132,-0.392 -0.334,0.05 0,0 z m -18.181999,-11.752 c 0.055,-0.38 -0.41,0.075 0,0 z m -1.736,-1.162 c -0.093,-0.535 -0.08,-1.474 0.812,-1.156 -1.191,0.236 0.824,1.48 0.57,0.498 0.5,0.024 0.979999,-0.296 0.716,0.19 0.986999,-0.11 1.669999,-0.964 2.623999,-0.845 0.742,-0.098 1.554,-0.172 2.354,-0.471 0.658,-0.048 1.29,-0.756 0.93,-1.175 -0.896,-0.076 -1.835,0.036 -2.827,0.233 -1.098,0.228 -2.096,0.662 -3.204999,0.849 -1.08,0.145 0.216999,0.4 -0.092,0.456 -0.564,0.196 0.671999,0.328 -0.073,0.534 -0.46,-0.088 -0.94,-0.246 -0.743,-0.73 -1.035,0.133 -1.945,0.563 -1.127,1.616 h 0.06 z m 2.493999,-1.27 c 0.243,-0.894 1.3,0.735 0.398,0.118 -0.108,-0.08 -0.285,-0.146 -0.398,-0.12 z m 0.047,-0.434 c 0.35,-0.26 0.186,0.146 0,0 z m 0.445,0.008 c 0.032,-0.411 1.018,0.218 0.163,0.148 z m 0.608,-0.245 c 0.222,-0.26 0.064,0.23 0,0 z m 0.156,-0.104 c 0.37,-0.444 2.095,-0.283 0.832,-0.043 -0.338,-0.255 -0.598,0.15 -0.832,0.043 z m 2.25,-0.347 c -0.055,-1.214 1.119,0.432 0,0 z m 0.64,-0.004 c 0.233,-0.612 0.906,-0.245 0.108,-0.123 0.017,0.065 -0.024,0.316 -0.108,0.123 z m -5.154999,3.245 c 0.697,-0.427 -0.741,-0.37 0,0 z m 0.515,0.144 c 0.244999,-0.26 -0.531,-0.106 0,0 z m -1.52,-1.08 c 0.399,-0.305 -0.471,-0.116 0,0 z m 20.601999,12.89 c 0.012,-0.355 -0.304,0.16 0,0 z m -2.093,-1.43 c 0.06,-0.408 -0.27,0.037 0,0 z m 2.67,1.568 c 0.557,0 1.688,-0.173 0.475,-0.173 -0.19,0.03 -1.109,0.024 -0.476,0.173 z m -19.206,-12.2 c 0.45,-0.03 0.706,-0.497 -0.087,-0.47 -1.229999,-0.127 1.084,0.42 -0.158,0.264 -0.166999,0.11 0.236,0.237 0.245,0.207 z m 0.398,0.202 c -0.048,-0.29 -0.14,0.154 0,0 z m 0.47,-1.257 c 0.197,-0.243 -0.27,-0.065 0,0 z m -1.499999,-2.508 c 0.805999,-0.274 1.906999,-0.581 2.286999,0.135 -0.387,-0.466 -0.156,-0.924 0.21,-0.243 0.516,0.689 0.775,-0.313 0.438,-0.545 0.383,0.476 0.819,0.7 0.257,0.03 0.61,-0.734 -1.223,0.097 -1.64,0.088 -0.2,0.09 -2.070999,0.477 -1.550999,0.535 z m 0.471999,-0.903 c 0.46,-0.347 1.588,0.206 0.864,-0.345 -0.07,-0.062 -1.585999,0.418 -0.864,0.345 z m 1.674,0.069 c 0.538,0.013 -0.231,-0.722 0.409,-0.39 -0.105,-0.343 -0.746,-0.407 -1.06,-0.544 -0.176,0.314 0.36,0.938 0.65,0.934 z m -1.38,-1.52 c 0.186,-0.252 -0.326,0.128 0,0 z m 0.684,0.164 c 0.866,-0.115 -0.22,-0.373 -0.174,-0.01 z m -1.276999,-1 c -0.61,-0.796 1.145999,0.134 0.526999,-0.7 -0.521999,-0.415 -1.022999,0.468 -0.526999,0.7 z m 7.823999,4.215 c 0.28,-0.496 -1.155,-0.668 -0.188,-0.175 0.09,0.03 0.07,0.21 0.188,0.175 z"
     id="path1-8"
     style="fill:#fefefe;fill-opacity:0.03" /><path
     d="m 59.275525,69.376656 c -0.459517,-0.09076 -0.901309,0.214694 -0.990073,0.684527 l -3.098905,16.402686 c -0.08876,0.469833 0.20998,0.921544 0.669496,1.012302 l 16.042501,3.168481 c 0.459516,0.09076 0.901308,-0.214695 0.990073,-0.684528 l 3.098904,-16.402685 c 0.08876,-0.469833 -0.20998,-0.921545 -0.669496,-1.012302 z m 11.417545,9.882323 c 0.451403,0.08915 0.845903,0.196015 1.184237,0.320727 a 4.7927923,4.9003996 0 0 1 0.914846,0.446664 l -0.350212,1.853692 A 2.9673244,3.0339465 0 0 0 72.019108,81.514145 3.8259704,3.9118707 0 0 0 71.527303,81.213616 4.0964101,4.1883823 0 0 0 70.504,80.855051 c -0.221276,-0.0437 -0.426626,-0.06236 -0.616336,-0.05446 a 1.5775649,1.6129842 0 0 0 -0.493996,0.09175 c -0.140207,0.05367 -0.253904,0.128997 -0.343159,0.2248 a 0.66708457,0.68206189 0 0 0 -0.173076,0.349137 c -0.02792,0.147813 -0.01405,0.289017 0.0397,0.421669 0.05448,0.132797 0.142558,0.265971 0.26349,0.399376 0.120932,0.133405 0.272675,0.269766 0.454944,0.410592 0.182126,0.141579 0.390236,0.29142 0.623734,0.448622 0.318597,0.217035 0.599938,0.436882 0.844307,0.658031 0.244228,0.221904 0.44523,0.457957 0.60301,0.70816 0.157921,0.249448 0.262938,0.519739 0.316526,0.811164 0.05358,0.291424 0.04728,0.616392 -0.02068,0.97612 -0.09361,0.495474 -0.264597,0.894308 -0.511064,1.194529 a 2.2784544,2.32961 0 0 1 -0.901027,0.670824 3.2903496,3.3642242 0 0 1 -1.181707,0.232848 c -0.434572,0.008 -0.883459,-0.03367 -1.345926,-0.125015 A 7.4491111,7.6163578 0 0 1 66.728948,87.881472 4.1647713,4.2582783 0 0 1 65.68396,87.289413 l 0.374718,-1.983405 a 3.7808971,3.8657855 0 0 0 2.216593,1.376533 c 0.245615,0.04851 0.464527,0.06828 0.655998,0.05916 0.192207,-0.009 0.356855,-0.04217 0.495136,-0.09778 0.137826,-0.05727 0.247239,-0.134223 0.329261,-0.232238 a 0.76849946,0.78575373 0 0 0 0.100574,-0.832042 1.5925893,1.628346 0 0 0 -0.324845,-0.455302 4.204586,4.2989869 0 0 0 -0.531971,-0.452402 20.823856,21.291391 0 0 0 -0.680628,-0.475506 c -0.622536,-0.422569 -1.060222,-0.875907 -1.314083,-1.358651 -0.253124,-0.482598 -0.3245,-1.020045 -0.212939,-1.610541 0.08748,-0.463046 0.253291,-0.842563 0.49757,-1.139305 0.244279,-0.296742 0.542352,-0.521841 0.895695,-0.675005 a 3.3759888,3.4517862 0 0 1 1.173871,-0.260213 5.6612042,5.788309 0 0 1 1.334166,0.106266 z m -11.173927,-2.059842 7.053537,1.393112 -0.308608,1.633482 -2.531396,-0.499965 -1.374346,7.274497 -2.004022,-0.395806 1.374346,-7.274496 -2.518119,-0.497343 z"
     id="path1-48"
     style="fill:#fefefe;fill-opacity:0.03;stroke-width:0.759608" /><path
     d="m 87.820289,69.964735 2.785276,-0.177918 0.881585,13.801044 c -1.410299,0.381484 -2.451968,0.564736 -3.591205,0.637507 -3.400675,0.217229 -5.278172,-1.315104 -5.479763,-4.470975 -0.194215,-3.040393 1.560689,-5.134295 4.473018,-5.320328 0.452146,-0.02888 0.798118,-0.01285 1.221489,0.07682 z m 0.443704,6.946106 a 2.9643727,2.7696137 86.345023 0 0 -0.950392,-0.09491 c -1.411091,0.09014 -2.165176,1.071234 -2.061227,2.69855 0.101427,1.587813 0.934987,2.408756 2.363825,2.317484 0.307345,-0.01964 0.559532,-0.05481 0.953286,-0.138702 l -0.305541,-4.783185 z m 7.067687,-2.803241 0.441516,6.911918 c 0.15209,2.380957 0.0625,3.533957 -0.362761,4.552025 -0.391538,0.977771 -0.950145,1.616081 -2.138219,2.352574 l -2.670629,-1.151369 c 1.19054,-0.697748 1.752788,-1.279077 2.079391,-2.135226 0.343806,-0.877083 0.40706,-1.872785 0.241378,-4.466464 l -0.376001,-5.886299 2.785272,-0.177917 z m -3.078344,-4.410021 2.785271,-0.177918 0.195382,3.058627 -2.785271,0.177917 z"
     id="path1-32"
     style="fill:#fefefe;fill-opacity:0.03;stroke-width:0.735834" /><path
     d="M 14.984925,79.60013 11.247943,71.104275 C 11.032297,70.615116 10.424876,70.378282 9.8890115,70.574426 l -1.923646,0.711069 0.984191,2.237821 c 0.457465,0.03394 0.87499,0.294136 1.0565865,0.708215 0.184265,0.417807 0.07594,0.874696 -0.2305015,1.18649 l 0.9472895,2.156257 c 0.459581,0.02939 0.882074,0.291522 1.065005,0.707466 0.257367,0.584022 -0.0505,1.245923 -0.688739,1.480748 -0.636731,0.234742 -1.3584295,-0.04665 -1.6148185,-0.629618 -0.191673,-0.438161 -0.06499,-0.923494 0.27701,-1.232847 l -0.890994,-2.0107 -1.725817,3.710401 c 0.08657,0.09152 0.158719,0.198254 0.211046,0.316063 0.252133,0.582653 -0.05521,1.243418 -0.687682,1.478474 -0.637259,0.235878 -1.3639273,-0.04745 -1.6204085,-0.631798 -0.2563889,-0.582968 0.050423,-1.242595 0.6871535,-1.477337 0.160646,-0.05828 0.323939,-0.08597 0.483139,-0.08436 l 1.742745,-3.746797 c -0.110706,-0.104295 -0.204623,-0.228916 -0.266589,-0.373322 -0.194342,-0.441889 -0.0649,-0.926822 0.285417,-1.238303 l -0.963637,-2.206295 -6.36243414,2.343264 c -0.5326687,0.198733 -0.7916073,0.755435 -0.5789751,1.244761 l 3.73786804,8.495531 c 0.2153809,0.489727 0.8228012,0.726557 1.3576898,0.529367 l 9.2365689,-3.405221 c 0.535245,-0.196384 0.794184,-0.753087 0.578446,-1.243625"
     id="path1-21"
     style="fill:#fefefe;fill-opacity:0.03;stroke-width:0.64593" /><path
     d="m 95.987196,0.01843894 c -0.10975,-0.01056 -0.22358,-0.01579 -0.341281,-0.0178199958 C 92.631102,-0.05142106 93.120105,3.192653 92.972539,4.2438989 c -0.128183,0.767992 -0.34542,1.36235 -0.949105,2.06674 -0.698189,0.683866 -1.693273,1.802223 -2.230914,3.01603 -0.253493,0.570148 -0.404979,1.1643991 -0.372715,1.7427401 a 0.30159016,0.30159016 0 0 0 -0.08708,0.08809 c -0.20234,0.172045 -0.359476,0.394171 -0.526563,0.548884 -0.154451,0.127345 -0.361579,0.156013 -0.591542,0.228932 -0.230875,0.07498 -0.484203,0.145648 -0.658048,0.422618 -0.0766,0.127688 -0.123125,0.269702 -0.134459,0.417244 -0.01355,0.140898 -0.0081,0.285051 0.0024,0.38325 0.01389,0.286454 0.03255,0.523346 -0.03774,0.689513 -0.222611,0.464502 -0.276228,0.791625 -0.176119,1.043497 0.100451,0.248332 0.346787,0.36921 0.624618,0.489544 0.559883,0.19677 1.343142,0.225663 1.923215,0.613739 0.623893,0.393007 1.275548,0.601463 1.820196,0.510936 0.380323,-0.04631 0.718389,-0.262465 0.919722,-0.587526 0.415817,0.03786 0.8892,-0.106691 1.622896,-0.08257 0.498862,0.0065 1.096252,0.29624 1.810975,0.317111 0.009,0.09658 0.0311,0.14448 0.058,0.243538 l 0.002,0.0023 c 0.22385,0.577476 0.71094,0.87729 1.26099,0.886608 0.54997,0.01003 1.16369,-0.271081 1.68697,-0.770974 0.49886,-0.498669 1.265434,-0.652885 1.786054,-0.902217 0.25994,-0.117197 0.47729,-0.289227 0.5176,-0.559749 0.0435,-0.281645 -0.0864,-0.587833 -0.41182,-1.022876 l 0.006,-0.06867 -0.002,-0.0023 c -0.10674,-0.153184 -0.14057,-0.395822 -0.17625,-0.678655 -0.0329,-0.289709 -0.0753,-0.568906 -0.27711,-0.774106 l -0.002,-2.05e-4 c -0.0381,-0.04225 -0.0825,-0.05581 -0.12392,-0.108387 a 0.25393322,0.25393322 0 0 0 -0.13017,-0.05825 c 0.39214,-0.875512 0.36053,-1.787499 0.12903,-2.6272471 -0.281364,-1.034622 -0.857614,-1.967555 -1.302764,-2.614194 -0.49515,-0.765781 -0.98257,-1.492947 -0.87515,-2.490887 0.16497,-1.5219089 0.58478,-4.32627396 -2.09116,-4.58795596 z m 0.14265,2.44686806 0.009,8.54e-4 c 0.15082,0.0145 0.27616,0.07087 0.40001,0.179963 0.12533,0.108523 0.21104,0.25754 0.27382,0.407209 0.0567,0.190531 0.0806,0.335746 0.0682,0.523919 0.001,-0.01416 0.007,-0.02791 0.008,-0.04207 l -0.007,0.07434 a 0.06117159,0.06117159 0 0 1 -0.001,-0.01514 l -0.001,-0.01726 a 1.2853147,1.2853147 0 0 1 -0.15428,0.4896539 0.67786656,0.67786656 0 0 1 -0.17363,0.222683 0.50502126,0.50502126 0 0 0 -0.0595,-0.03573 c -0.0706,-0.03894 -0.13584,-0.0588 -0.19203,-0.113509 a 0.93322238,0.93322238 0 0 0 -0.15127,-0.06171 c 0.0395,-0.03908 0.11243,-0.08423 0.14305,-0.127727 0.0462,-0.08702 0.076,-0.1813359 0.0897,-0.2786349 l 10e-4,-0.01416 a 0.86067003,0.86067003 0 0 0 -0.0159,-0.287366 c -0.0228,-0.09794 -0.0579,-0.148484 -0.10689,-0.248237 -0.055,-0.05245 -0.10925,-0.104833 -0.18006,-0.111643 l -0.0113,-0.0011 c -0.0659,-0.0063 -0.12665,0.0093 -0.19449,0.07562 a 0.56903804,0.56903804 0 0 0 -0.167891,0.22252 0.83933111,0.83933111 0 0 0 -0.09096,0.277083 l -0.0014,0.01345 c -0.005,0.06315 -0.0064,0.127283 -0.0043,0.190406 -0.132097,-0.060562 -0.30093,-0.125395 -0.416026,-0.184342 a 1.1629715,1.1629715 0 0 1 7.12e-4,-0.142832 l 0.0014,-0.01416 a 1.2604193,1.2604193 0 0 1 0.158505,-0.533551 c 0.07304,-0.150182 0.191915,-0.27166 0.340755,-0.348095 a 0.70062808,0.70062808 0 0 1 0.434185,-0.101152 z m -2.101201,-0.159951 0.02546,0.0024 c 0.100542,0.0097 0.187897,0.05237 0.273309,0.122758 0.09459,0.101279 0.167305,0.221892 0.211896,0.352662 0.05015,0.147026 0.07188,0.292746 0.06288,0.482675 l -2.7e-4,0.0028 c -0.0043,0.09535 -0.0094,0.142015 -0.01956,0.1882 l -0.0057,0.05664 c -0.02169,0.0029 -0.0409,0.0089 -0.06039,0.01134 -0.111368,0.02859 -0.203197,0.07692 -0.291874,0.114841 0.01465,-0.06291 0.02148,-0.12656 0.02027,-0.18884 l 7.11e-4,-0.01062 c 5.62e-4,-0.09499 -0.01472,-0.14433 -0.03535,-0.241358 a 0.4360254,0.4360254 0 0 0 -0.09935,-0.20035 0.17640179,0.17640179 0 0 0 -0.12521,-0.05778 l -0.01487,-0.0014 c -0.05071,-5.87e-4 -0.09477,0.01947 -0.140687,0.08079 a 0.39263625,0.39263625 0 0 0 -0.103352,0.182995 0.67146489,0.67146489 0 0 0 -0.03877,0.232083 l -7.11e-4,0.01062 c -7.04e-4,0.0964 0.01259,0.144125 0.03386,0.24193 0.02347,0.09801 0.05577,0.14828 0.09928,0.2010569 0.0064,0.007 0.01295,0.01411 0.02241,0.01931 -0.05342,0.03559 -0.0876,0.0416 -0.133873,0.08431 a 0.21623445,0.21623445 0 0 1 -0.09738,0.03923 1.8635996,1.8635996 0 0 1 -0.167333,-0.3033569 1.2604193,1.2604193 0 0 1 -0.0643,-0.482812 1.2511724,1.2511724 0 0 1 0.102135,-0.467515 1.0171555,1.0171555 0 0 1 0.236805,-0.359523 c 0.09969,-0.08545 0.197713,-0.123899 0.309578,-0.113138 z m 0.853821,1.301202 c 0.235062,0.02261 0.514552,0.09594 0.83379,0.3653189 0.19383,0.16156 0.35198,0.226078 0.71297,0.403003 l 0.002,2.04e-4 c 0.17129,0.113659 0.26863,0.215919 0.31126,0.315058 l 0.009,-0.09275 a 0.4061509,0.4061509 0 0 1 -0.0207,0.333864 c -0.1082,0.211112 -0.40914,0.420121 -0.80998,0.523766 l -1.3e-4,0.0014 c -0.198947,0.07733 -0.377405,0.201653 -0.580395,0.276453 -0.204612,0.07679 -0.43621,0.166699 -0.734706,0.120122 a 0.81016791,0.81016791 0 0 1 -0.312611,-0.077928 2.5364871,2.5364871 0 0 1 -0.214499,-0.162119 c -0.128873,-0.108865 -0.234408,-0.259788 -0.401649,-0.370914 l 3.42e-4,-0.0036 -0.0036,-3.4e-4 c -0.266456,-0.201374 -0.401275,-0.404421 -0.437352,-0.549378 -0.0313,-0.194519 0.02845,-0.333114 0.177511,-0.411673 0.167795,-0.08033 0.287514,-0.165997 0.364867,-0.205004 0.07867,-0.04531 0.108196,-0.06248 0.133532,-0.08076 l 0.0014,1.36e-4 2.06e-4,-0.0021 C 94.047133,3.857804 94.254434,3.686236 94.548691,3.620931 c 0.100869,-0.01603 0.212585,-0.026 0.334366,-0.01428 z m 1.8366,1.7072919 c 0.15697,1.027659 0.61014,2.541856 0.9238,3.285177 0.16613,0.397566 0.49238,1.232851 0.5743,2.2161331 0.1108,0.0071 0.23242,0.03522 0.35886,0.08025 0.57119,-1.1391211 -0.15047,-2.4919231 -0.50094,-2.8822111 -0.14215,-0.156589 -0.14145,-0.25299 -0.0643,-0.245567 0.38137,0.41827 0.8594,1.205986 0.97765,2.064138 0.0556,0.3876501 0.0381,0.7925611 -0.0989,1.1838401 0.0455,0.02439 0.0915,0.05168 0.14059,0.0614 0.69432,0.448372 0.93657,0.760364 0.7662,1.172011 l 0.003,-0.03044 c -0.0422,-0.0062 -0.085,-0.0082 -0.12745,-0.01226 l -0.0113,-0.0011 c 0.13872,-0.320367 -0.0727,-0.59652 -0.67069,-0.93916 -0.6206,-0.345528 -1.14253,-0.349998 -1.28488,0.208689 -0.009,0.0299 -0.0137,0.04584 -0.022,0.09436 -0.0497,0.01165 -0.10202,0.02806 -0.15233,0.03108 -0.32271,0.160467 -0.51428,0.428587 -0.64231,0.786425 -0.12834,0.368526 -0.19909,0.806904 -0.27243,1.309345 l -2.1e-4,0.0021 c -0.037,0.235182 -0.17749,0.581813 -0.31785,0.934177 -1.135057,0.656851 -2.639494,0.845135 -3.809293,-0.127741 a 1.881382,1.881382 0 0 0 -0.248329,-0.404758 1.0313814,1.0313814 0 0 0 -0.172027,-0.254502 c 0.128859,0.0124 0.241358,0.0018 0.333798,-0.01577 a 0.43744799,0.43744799 0 0 0 0.245063,-0.215097 c 0.09465,-0.181689 0.04744,-0.493497 -0.165064,-0.846935 -0.212464,-0.354146 -0.591408,-0.767895 -1.162367,-1.198683 -0.418819,-0.326118 -0.638866,-0.683138 -0.719164,-1.06673 -0.08046,-0.389325 -0.02731,-0.7779511 0.101417,-1.1657301 0.246336,-0.740906 0.761807,-1.434488 1.090198,-1.869521 0.08019,-0.03874 0.017,0.0981 -0.355207,0.661834 -0.331529,0.504761 -0.977209,1.690311 -0.348856,2.7204371 a 5.77787,5.77787 0 0 1 0.653967,-1.9922291 c 0.486364,-0.866451 1.472734,-2.36223 1.658717,-3.60486 0.03151,0.02876 0.144443,0.110362 0.190863,0.162703 0.145289,0.109015 0.246372,0.261654 0.386064,0.369416 0.134997,0.156616 0.314919,0.269676 0.597418,0.29685 0.02738,0.0048 0.05271,0.0094 0.07747,0.01174 0.291711,0.02806 0.525991,-0.04516 0.724158,-0.121852 0.214456,-0.07512 0.390924,-0.201067 0.551184,-0.232814 l 0.004,3.4e-4 c 0.33983,-0.06378 0.61857,-0.22776 0.78685,-0.424519 z m 0.93696,6.4913371 c -0.0147,0.427338 0.15807,0.904857 0.53071,1.035025 0.40719,0.134922 1.03799,-0.138112 1.32018,-0.419667 l 0.15007,0.0073 c 0.22351,0.01649 0.407864,0.04638 0.581454,0.247436 l 0.002,0.0023 c 0.13372,0.155064 0.17985,0.396028 0.21718,0.646863 0.0329,0.289001 0.0559,0.562752 0.21699,0.782614 0.3082,0.406231 0.39498,0.685403 0.37266,0.850469 l 0.003,-0.0048 -10e-4,0.01275 -0.001,-0.0087 c -0.0285,0.184483 -0.15796,0.267781 -0.39312,0.387362 -0.47337,0.241014 -1.284714,0.385207 -1.846554,0.944274 -0.48776,0.479729 -1.04765,0.713851 -1.52267,0.704603 -0.47373,-0.0077 -0.86221,-0.225851 -1.05328,-0.743007 l -0.004,-0.0025 c -0.1214,-0.297434 -0.0151,-0.733824 0.15479,-1.192677 0.17011,-0.460978 0.39457,-0.922443 0.45701,-1.3116 0.0748,-0.503013 0.14473,-0.940044 0.26161,-1.271085 0.11663,-0.321061 0.27235,-0.543324 0.52086,-0.653047 l 0.0334,-0.01251 z m -7.659968,-0.701788 0.0071,6.81e-4 c 0.03749,0.0036 0.074,0.01069 0.110208,0.02061 0.262469,0.06455 0.477188,0.283856 0.673094,0.602109 l 0.530983,1.240137 0.0021,0.0023 c 0.135752,0.39393 0.461391,0.804695 0.730361,1.240022 0.266559,0.452958 0.468155,0.853221 0.409231,1.161254 l -4.13e-4,0.0043 c -0.09102,0.522903 -0.41803,0.780139 -0.884648,0.839584 -0.465879,0.05165 -1.076343,-0.102103 -1.66413,-0.491636 -0.648873,-0.445429 -1.46767,-0.476312 -1.981846,-0.620809 -0.256768,-0.07186 -0.418277,-0.183149 -0.484663,-0.332451 -0.06427,-0.149097 -0.03901,-0.43393 0.170856,-0.8625 l 2.72e-4,-0.0028 0.0016,-0.002 c 0.105586,-0.228515 0.07246,-0.530396 0.05702,-0.793416 -0.01163,-0.287666 -0.01041,-0.508354 0.09446,-0.66262 0.136031,-0.225585 0.307621,-0.256242 0.52484,-0.330387 0.217355,-0.07556 0.466896,-0.09944 0.679856,-0.270459 l 0.0014,1.36e-4 1.36e-4,-0.0014 c 0.199511,-0.172318 0.356007,-0.39522 0.530039,-0.547835 0.148213,-0.129375 0.29193,-0.212019 0.492303,-0.192745 z m 5.686767,-5.9371011 c -0.321685,0.112688 -0.705522,0.314437 -1.089986,0.277457 -0.383752,-0.036917 -0.668605,-0.255106 -0.87454,-0.417116 -0.09991,-0.105364 -0.179994,-0.208821 -0.241279,-0.262593 -0.106994,-0.106045 -0.07928,-0.245581 -0.02973,-0.240814 0.07609,0.01875 0.08221,0.103661 0.127279,0.155159 0.06345,0.05327 0.138604,0.156248 0.23221,0.260291 0.193125,0.161493 0.449654,0.376962 0.79447,0.410128 0.343393,0.03303 0.763734,-0.117329 1.021558,-0.234732 0.147259,-0.0823 0.337819,-0.206175 0.490609,-0.286518 0.11971,-0.08567 0.12368,-0.178896 0.21572,-0.170042 0.0895,0.02004 0.0149,0.09719 -0.12669,0.225054 a 5.7593762,5.7593762 0 0 1 -0.520409,0.284366 z m -0.658278,-1.1945 0.0014,-0.01558 c -0.0028,-0.01457 0.01209,-0.02885 0.02397,-0.03342 0.05534,-0.02541 0.129286,-0.0068 0.183814,0.02054 0.0446,0.0043 0.108722,0.05833 0.09701,0.105799 -0.0076,0.03428 -0.06466,0.04094 -0.10008,0.03753 -0.03891,-0.0038 -0.06224,-0.03671 -0.0952,-0.05775 -0.03556,-0.01629 -0.102832,-0.01561 -0.110984,-0.05713 z m -0.390125,-0.03753 c -0.01814,0.0397 -0.08334,0.02699 -0.12203,0.03542 -0.035,0.0145 -0.06551,0.04229 -0.10375,0.03861 -0.03542,-0.0034 -0.09068,-0.02301 -0.09166,-0.05741 -0.0028,-0.04741 0.07136,-0.08818 0.115266,-0.08395 0.05875,-0.0165 0.133475,-0.02075 0.183721,0.0141 0.01288,0.0077 0.02347,0.02369 0.01785,0.03744 l -0.0014,0.01416 0.0021,2.04e-4 z"
     id="path1-5"
     style="fill:#fefefe;fill-opacity:0.03;stroke-width:0.711298" /><path
     d="m 9.6763418,29.625153 c -3.2641923,0.24483 -5.7096287,3.088456 -5.4649091,6.351172 0.1958273,2.610862 2.0545454,4.697943 4.4600441,5.302262 0.299574,0.03348 0.394189,-0.157303 0.382409,-0.314358 -0.01053,-0.140316 -0.04329,-0.511664 -0.08271,-1.003814 C 7.3544899,40.440131 6.9216953,39.317014 6.9216953,39.317014 6.6017346,38.65529 6.1996175,38.502262 6.1996175,38.502262 c -0.5626439,-0.326158 0.014434,-0.362016 0.014434,-0.362016 0.5963673,-0.0031 0.9505578,0.540656 0.9505578,0.540656 0.5945625,0.863926 1.4311649,0.538769 1.7575699,0.36229 0.02453,-0.386043 0.157114,-0.657899 0.314907,-0.818266 -1.3231552,-0.04929 -2.7403,-0.453946 -2.9100932,-2.717709 -0.048375,-0.644962 0.1410491,-1.188933 0.4891289,-1.630931 -0.077652,-0.144193 -0.322103,-0.729888 -0.065587,-1.567538 0,0 0.4829074,-0.195645 1.6701316,0.483711 0.462784,-0.166903 0.960092,-0.269558 1.462055,-0.310178 0.5024005,-0.03477 1.0094635,-0.0074 1.4919665,0.08861 1.065216,-0.848301 1.571905,-0.726881 1.571905,-0.726881 0.378599,0.790014 0.224254,1.40562 0.176366,1.559229 0.407656,0.385314 0.676106,0.894943 0.724481,1.539904 0.170237,2.269672 -1.173287,2.872976 -2.476932,3.116812 0.220076,0.161732 0.439266,0.50969 0.480773,1.063077 0.05931,0.790693 0.09956,1.42636 0.113965,1.618371 0.01163,0.155086 0.12887,0.331958 0.427226,0.250166 2.305585,-0.952227 3.830587,-3.294589 3.635055,-5.901511 -0.244719,-3.262716 -3.088457,-5.709629 -6.3511725,-5.464909"
     id="path1-46"
     style="fill:#fefefe;fill-opacity:0.03;stroke-width:0.49372" /><path
     d="m 22.940664,23.323928 -2.673819,8.038597 a 1.6136419,1.6136419 0 0 0 1.021862,2.04046 l 6.507436,2.16452 a 1.6136419,1.6136419 0 0 0 2.04046,-1.021862 l 2.16452,-6.507436 a 1.6136419,1.6136419 0 0 0 -1.021862,-2.04046 z m 3.949636,7.10629 c 0.622035,0.206903 0.765887,0.733036 0.568555,1.358253 l -0.641174,-0.213269 c 0.04777,-0.111652 0.06044,-0.24561 0.05399,-0.354039 -0.01281,-0.08929 -0.07982,-0.143465 -0.18509,-0.178479 -0.181826,-0.06048 -0.312537,0.01296 -0.388932,0.242631 -0.08597,0.226489 -0.0029,0.392278 0.162992,0.532499 0.248895,0.21033 0.542497,0.509931 0.593692,0.771416 q 0.08631,0.31568 -0.04738,0.717609 c -0.213269,0.641174 -0.707428,0.912575 -1.339031,0.70249 -0.660314,-0.219635 -0.820103,-0.729812 -0.610037,-1.393308 l 0.669882,0.222818 c -0.105042,0.315802 -0.05071,0.503933 0.15983,0.573962 0.105267,0.03501 0.191376,0.03177 0.251936,-0.02249 0.117936,-0.09894 0.25167,-0.437087 0.181397,-0.609261 -0.07029,-0.204066 -0.284073,-0.360202 -0.418111,-0.500443 q -0.277637,-0.267719 -0.363918,-0.53556 c -0.04795,-0.175378 -0.02577,-0.401828 0.06017,-0.660211 0.190987,-0.574186 0.701082,-0.861544 1.291223,-0.654621 m 2.153196,0.716202 c 0.631605,0.210086 0.775456,0.736218 0.578124,1.361436 L 28.98044,32.294584 c 0.0382,-0.114837 0.06044,-0.245611 0.04442,-0.357224 -0.01281,-0.08929 -0.07025,-0.140282 -0.17552,-0.175296 -0.191396,-0.06366 -0.322107,0.0098 -0.398502,0.239448 -0.0764,0.229674 -0.0029,0.392278 0.172561,0.535682 0.239326,0.207147 0.542498,0.509931 0.593692,0.771416 0.04797,0.207269 0.03218,0.446472 -0.05695,0.714426 -0.203695,0.644358 -0.697858,0.915758 -1.329462,0.705673 -0.669884,-0.222819 -0.826489,-0.742564 -0.619607,-1.396491 l 0.669886,0.222819 c -0.09868,0.296663 -0.05071,0.503933 0.15983,0.573961 0.105267,0.03501 0.191376,0.03177 0.251935,-0.02249 0.127511,-0.09576 0.261241,-0.433904 0.181398,-0.609261 -0.06072,-0.200883 -0.274503,-0.357019 -0.418111,-0.500442 -0.18509,-0.178479 -0.306395,-0.357 -0.354346,-0.532378 -0.04795,-0.175377 -0.02577,-0.401827 0.06017,-0.66021 0.181423,-0.577367 0.691512,-0.864727 1.281654,-0.657804 M 24.64259,29.690584 c 0.284293,0.09193 0.539552,0.267149 0.649725,0.495113 0.11496,0.229552 0.118347,0.538905 -0.0058,0.880234 l -0.708168,-0.235544 c 0.07005,-0.178641 0.06677,-0.328534 -0.04493,-0.440087 -0.105308,-0.0988 -0.299866,-0.120998 -0.385913,-0.02208 -0.08287,0.08935 -0.15295,0.204209 -0.181583,0.322228 l -0.464735,1.397185 c -0.09868,0.296663 -0.04434,0.484793 0.156625,0.551638 a 0.2731425,0.2731425 0 0 0 0.255119,-0.03206 c 0.09882,-0.07342 0.149768,-0.19464 0.1784,-0.312658 l 0.708162,0.23555 c -0.178174,0.663476 -0.752053,0.950875 -1.380473,0.731219 -0.612465,-0.203719 -0.880663,-0.675555 -0.657824,-1.313546 l 0.534764,-1.607719 c 0.108226,-0.325372 0.286685,-0.542355 0.522623,-0.644561 0.226368,-0.105389 0.539717,-0.09682 0.824017,-0.0049"
     id="path1-57"
     style="fill:#fefefe;fill-opacity:0.03;stroke-width:0.420219" /></svg>
